Mada-ExtraLight.ufo
<glyph name="arComma" format="2">
  <advance width="208.0"/>
  <unicode hex="060C"/>
  <outline>
    <contour>
      <point x="148.0" y="204" type="line"/>
      <point x="96.0" y="172"/>
      <point x="56.0" y="118"/>
      <point x="56.0" y="50" type="curve" smooth="yes"/>
      <point x="56.0" y="12"/>
      <point x="74.0" y="-12"/>
      <point x="100.0" y="-12" type="curve" smooth="yes"/>
      <point x="118.0" y="-12"/>
      <point x="136.0" y="0"/>
      <point x="136.0" y="24" type="curve" smooth="yes"/>
      <point x="136.0" y="48"/>
      <point x="120.0" y="60"/>
      <point x="100.0" y="60" type="curve" smooth="yes"/>
      <point x="88.0" y="60"/>
      <point x="76.0" y="58"/>
      <point x="68.0" y="44" type="curve"/>
      <point x="102.0" y="2" type="line"/>
      <point x="88.0" y="56" type="line"/>
      <point x="88.0" y="114"/>
      <point x="118.0" y="156"/>
      <point x="160.0" y="180" type="curve"/>
    </contour>
  </outline>
</glyph>
<glyph name="comma-ar" format="2">
  <advance width="208"/>
  <unicode hex="060C"/>
  <outline>
    <contour>
      <point x="148" y="204" type="line"/>
      <point x="96" y="172"/>
      <point x="56" y="118"/>
      <point x="56" y="50" type="curve" smooth="yes"/>
      <point x="56" y="12"/>
      <point x="74" y="-12"/>
      <point x="100" y="-12" type="curve" smooth="yes"/>
      <point x="118" y="-12"/>
      <point x="136" y="0"/>
      <point x="136" y="24" type="curve" smooth="yes"/>
      <point x="136" y="48"/>
      <point x="120" y="60"/>
      <point x="100" y="60" type="curve" smooth="yes"/>
      <point x="88" y="60"/>
      <point x="76" y="58"/>
      <point x="68" y="44" type="curve"/>
      <point x="102" y="2" type="line"/>
      <point x="88" y="56" type="line"/>
      <point x="88" y="114"/>
      <point x="118" y="156"/>
      <point x="160" y="180" type="curve"/>
    </contour>
  </outline>
</glyph>
<glyph name="tahabove-ar" format="2">
  <unicode hex="0615"/>
  <anchor x="0" y="0" name="_dotAbove"/>
  <anchor x="0" y="0" name="_markAboveDot"/>
  <anchor x="0" y="408" name="markAbove"/>
  <outline>
    <contour>
      <point x="-133" y="0" type="line"/>
      <point x="-133" y="16" type="line"/>
      <point x="-78" y="16" type="line"/>
      <point x="-78" y="0" type="line"/>
    </contour>
    <contour>
      <point x="-80" y="21" type="line"/>
      <point x="-29.5" y="90.5"/>
      <point x="22.5" y="173.5"/>
      <point x="89" y="149" type="curve" smooth="yes"/>
      <point x="118" y="137"/>
      <point x="131.5" y="110"/>
      <point x="132.5" y="67.5" type="curve" smooth="yes"/>
      <point x="133.5" y="34.5" type="line" smooth="yes"/>
      <point x="134" y="15.5"/>
      <point x="118.5" y="0"/>
      <point x="99" y="0" type="curve" smooth="yes"/>
      <point x="-87" y="0" type="line"/>
      <point x="-87" y="16" type="line"/>
      <point x="99" y="16" type="line" smooth="yes"/>
      <point x="110.5" y="16"/>
      <point x="118" y="24"/>
      <point x="117.5" y="33.5" type="curve" smooth="yes"/>
      <point x="116.5" y="67.5" type="line" smooth="yes"/>
      <point x="115.5" y="107"/>
      <point x="105" y="125"/>
      <point x="83.5" y="134" type="curve" smooth="yes"/>
      <point x="32.5" y="152.5"/>
      <point x="-15.5" y="83"/>
      <point x="-67.5" y="12" type="curve"/>
    </contour>
    <contour>
      <point x="-81" y="312" type="line"/>
      <point x="-65" y="312" type="line"/>
      <point x="-65" y="11" type="line"/>
      <point x="-81" y="11" type="line"/>
    </contour>
  </outline>
</glyph>
<glyph name="arSemicolon" format="2">
  <advance width="208.0"/>
  <unicode hex="061B"/>
  <outline>
    <contour>
      <point x="104.0" y="66" type="curve" smooth="yes"/>
      <point x="86.0" y="66"/>
      <point x="68.0" y="52"/>
      <point x="68.0" y="28" type="curve" smooth="yes"/>
      <point x="68.0" y="2"/>
      <point x="86.0" y="-12"/>
      <point x="104.0" y="-12" type="curve" smooth="yes"/>
      <point x="122.0" y="-12"/>
      <point x="140.0" y="2"/>
      <point x="140.0" y="28" type="curve" smooth="yes"/>
      <point x="140.0" y="52"/>
      <point x="122.0" y="66"/>
    </contour>
    <contour>
      <point x="148.0" y="594" type="line"/>
      <point x="96.0" y="562"/>
      <point x="56.0" y="508"/>
      <point x="56.0" y="440" type="curve" smooth="yes"/>
      <point x="56.0" y="402"/>
      <point x="74.0" y="378"/>
      <point x="100.0" y="378" type="curve" smooth="yes"/>
      <point x="118.0" y="378"/>
      <point x="136.0" y="390"/>
      <point x="136.0" y="414" type="curve" smooth="yes"/>
      <point x="136.0" y="438"/>
      <point x="120.0" y="450"/>
      <point x="100.0" y="450" type="curve" smooth="yes"/>
      <point x="88.0" y="450"/>
      <point x="76.0" y="448"/>
      <point x="68.0" y="434" type="curve"/>
      <point x="102.0" y="392" type="line"/>
      <point x="88.0" y="446" type="line"/>
      <point x="88.0" y="504"/>
      <point x="118.0" y="546"/>
      <point x="160.0" y="570" type="curve"/>
    </contour>
  </outline>
</glyph>
<glyph name="semicolon-ar" format="2">
  <advance width="208"/>
  <unicode hex="061B"/>
  <outline>
    <contour>
      <point x="104" y="66" type="curve" smooth="yes"/>
      <point x="86" y="66"/>
      <point x="68" y="52"/>
      <point x="68" y="28" type="curve" smooth="yes"/>
      <point x="68" y="2"/>
      <point x="86" y="-12"/>
      <point x="104" y="-12" type="curve" smooth="yes"/>
      <point x="122" y="-12"/>
      <point x="140" y="2"/>
      <point x="140" y="28" type="curve" smooth="yes"/>
      <point x="140" y="52"/>
      <point x="122" y="66"/>
    </contour>
    <contour>
      <point x="148" y="594" type="line"/>
      <point x="96" y="562"/>
      <point x="56" y="508"/>
      <point x="56" y="440" type="curve" smooth="yes"/>
      <point x="56" y="402"/>
      <point x="74" y="378"/>
      <point x="100" y="378" type="curve" smooth="yes"/>
      <point x="118" y="378"/>
      <point x="136" y="390"/>
      <point x="136" y="414" type="curve" smooth="yes"/>
      <point x="136" y="438"/>
      <point x="120" y="450"/>
      <point x="100" y="450" type="curve" smooth="yes"/>
      <point x="88" y="450"/>
      <point x="76" y="448"/>
      <point x="68" y="434" type="curve"/>
      <point x="102" y="392" type="line"/>
      <point x="88" y="446" type="line"/>
      <point x="88" y="504"/>
      <point x="118" y="546"/>
      <point x="160" y="570" type="curve"/>
    </contour>
  </outline>
</glyph>
<glyph name="arQuestion" format="2">
  <advance width="394.0"/>
  <unicode hex="061F"/>
  <outline>
    <contour>
      <point x="230.0" y="172" type="curve"/>
      <point x="202.0" y="172" type="line"/>
      <point x="222.0" y="329"/>
      <point x="52.0" y="394"/>
      <point x="52.0" y="532" type="curve" smooth="yes"/>
      <point x="52.0" y="614"/>
      <point x="106.0" y="682"/>
      <point x="202.0" y="682" type="curve" smooth="yes"/>
      <point x="270.0" y="682"/>
      <point x="320.0" y="648"/>
      <point x="358.0" y="606" type="curve"/>
      <point x="338.0" y="588" type="line"/>
      <point x="304.0" y="630"/>
      <point x="254.0" y="654"/>
      <point x="204.0" y="654" type="curve" smooth="yes"/>
      <point x="120.0" y="654"/>
      <point x="84.0" y="594"/>
      <point x="84.0" y="530" type="curve" smooth="yes"/>
      <point x="84.0" y="400"/>
      <point x="252.0" y="342"/>
    </contour>
    <contour>
      <point x="212.0" y="-12" type="curve" smooth="yes"/>
      <point x="194.0" y="-12"/>
      <point x="176.0" y="2"/>
      <point x="176.0" y="26" type="curve" smooth="yes"/>
      <point x="176.0" y="52"/>
      <point x="194.0" y="66"/>
      <point x="212.0" y="66" type="curve" smooth="yes"/>
      <point x="230.0" y="66"/>
      <point x="248.0" y="52"/>
      <point x="248.0" y="26" type="curve" smooth="yes"/>
      <point x="248.0" y="2"/>
      <point x="230.0" y="-12"/>
    </contour>
  </outline>
</glyph>
<glyph name="question-ar" format="2">
  <advance width="394"/>
  <unicode hex="061F"/>
  <outline>
    <contour>
      <point x="230" y="172" type="curve"/>
      <point x="202" y="172" type="line"/>
      <point x="222" y="329"/>
      <point x="52" y="394"/>
      <point x="52" y="532" type="curve" smooth="yes"/>
      <point x="52" y="614"/>
      <point x="106" y="682"/>
      <point x="202" y="682" type="curve" smooth="yes"/>
      <point x="270" y="682"/>
      <point x="320" y="648"/>
      <point x="358" y="606" type="curve"/>
      <point x="338" y="588" type="line"/>
      <point x="304" y="630"/>
      <point x="254" y="654"/>
      <point x="204" y="654" type="curve" smooth="yes"/>
      <point x="120" y="654"/>
      <point x="84" y="594"/>
      <point x="84" y="530" type="curve" smooth="yes"/>
      <point x="84" y="400"/>
      <point x="252" y="342"/>
    </contour>
    <contour>
      <point x="212" y="-12" type="curve" smooth="yes"/>
      <point x="194" y="-12"/>
      <point x="176" y="2"/>
      <point x="176" y="26" type="curve" smooth="yes"/>
      <point x="176" y="52"/>
      <point x="194" y="66"/>
      <point x="212" y="66" type="curve" smooth="yes"/>
      <point x="230" y="66"/>
      <point x="248" y="52"/>
      <point x="248" y="26" type="curve" smooth="yes"/>
      <point x="248" y="2"/>
      <point x="230" y="-12"/>
    </contour>
  </outline>
</glyph>
<glyph name="hamza-ar" format="2">
  <advance width="272"/>
  <unicode hex="0621"/>
  <anchor x="156" y="243" name="dotAbove"/>
  <anchor x="116" y="-80" name="dotBelow"/>
  <anchor x="156" y="281" name="markAbove"/>
  <anchor x="116" y="-100" name="markBelow"/>
  <outline>
    <contour>
      <point x="232" y="143" type="line"/>
      <point x="232" y="111" type="line"/>
      <point x="138.757" y="111" type="line"/>
      <point x="172.543" y="39.675" type="line" smooth="yes"/>
      <point x="175.312" y="33.442"/>
      <point x="182.667" y="21.333"/>
      <point x="174.333" y="9.317" type="curve" smooth="yes"/>
      <point x="168.958" y="1.566"/>
      <point x="157.202" y="0"/>
      <point x="151" y="0" type="curve" smooth="yes"/>
      <point x="40" y="0" type="line"/>
      <point x="40" y="32" type="line"/>
      <point x="140.77" y="32" type="line"/>
      <point x="107.457" y="102.325" type="line" smooth="yes"/>
      <point x="107.133" y="103.056"/>
      <point x="96.371" y="122.45"/>
      <point x="107.563" y="134.5" type="curve" smooth="yes"/>
      <point x="112.677" y="140.006"/>
      <point x="122.542" y="143"/>
      <point x="133" y="143" type="curve" smooth="yes"/>
    </contour>
  </outline>
</glyph>
<glyph name="hah-ar" format="2">
  <advance width="476"/>
  <unicode hex="062D"/>
  <anchor x="158" y="447" name="dotAbove"/>
  <anchor x="248" y="-40" name="dotBelow"/>
  <anchor x="158" y="447" name="hamzaAbove"/>
  <anchor x="158" y="484" name="markAbove"/>
  <anchor x="248" y="-240" name="markBelow"/>
  <outline>
    <contour>
      <point x="381" y="-168" type="line"/>
      <point x="381" y="-200" type="line"/>
      <point x="140" y="-200" type="line" smooth="yes"/>
      <point x="82.991" y="-200"/>
      <point x="40" y="-159"/>
      <point x="40" y="-104" type="curve" smooth="yes"/>
      <point x="40" y="11" type="line" smooth="yes"/>
      <point x="40" y="65"/>
      <point x="87" y="123"/>
      <point x="148" y="123" type="curve" smooth="yes"/>
      <point x="401" y="123" type="line"/>
      <point x="359" y="132"/>
      <point x="328" y="162"/>
      <point x="301" y="191" type="curve" smooth="yes"/>
      <point x="260" y="236"/>
      <point x="219" y="309"/>
      <point x="113" y="349" type="curve"/>
      <point x="125" y="379" type="line"/>
      <point x="241" y="335"/>
      <point x="288" y="254"/>
      <point x="325" y="213" type="curve" smooth="yes"/>
      <point x="362" y="173"/>
      <point x="387" y="153"/>
      <point x="436" y="153" type="curve"/>
      <point x="436" y="137" type="line" smooth="yes"/>
      <point x="436" y="124"/>
      <point x="424" y="91"/>
      <point x="393" y="91" type="curve" smooth="yes"/>
      <point x="148" y="91" type="line" smooth="yes"/>
      <point x="107" y="91"/>
      <point x="72" y="49"/>
      <point x="72" y="11" type="curve" smooth="yes"/>
      <point x="72" y="-104" type="line" smooth="yes"/>
      <point x="72" y="-141"/>
      <point x="99" y="-169"/>
      <point x="140" y="-168" type="curve" smooth="yes"/>
    </contour>
  </outline>
</glyph>
<glyph name="dal-ar" format="2">
  <advance width="412"/>
  <unicode hex="062F"/>
  <anchor x="198" y="380" name="dotAbove"/>
  <anchor x="194" y="-92" name="dotBelow"/>
  <anchor x="198" y="418" name="markAbove"/>
  <anchor x="194" y="-112" name="markBelow"/>
  <anchor x="194" y="0" name="ringBelow"/>
  <outline>
    <contour>
      <point x="163" y="280" type="curve"/>
      <point x="177" y="308" type="line"/>
      <point x="245" y="274"/>
      <point x="369" y="205"/>
      <point x="372" y="68" type="curve" smooth="yes"/>
      <point x="373" y="39"/>
      <point x="353" y="0"/>
      <point x="304" y="0" type="curve" smooth="yes"/>
      <point x="40" y="0" type="line"/>
      <point x="40" y="32" type="line"/>
      <point x="304" y="32" type="line" smooth="yes"/>
      <point x="331" y="32"/>
      <point x="340" y="51"/>
      <point x="340" y="68" type="curve" smooth="yes"/>
      <point x="334" y="186"/>
      <point x="236" y="244"/>
    </contour>
  </outline>
</glyph>
<glyph name="reh-ar" format="2">
  <advance width="227"/>
  <unicode hex="0631"/>
  <anchor x="70" y="0" name="center"/>
  <anchor x="169" y="-76" name="dash"/>
  <anchor x="171" y="291" name="dotAbove"/>
  <anchor x="93" y="-280" name="dotBelow"/>
  <anchor x="171" y="291" name="hamzaAbove"/>
  <anchor x="113" y="329" name="markAbove"/>
  <anchor x="93" y="-300" name="markBelow"/>
  <anchor x="93" y="-199" name="ringBelow"/>
  <outline>
    <contour>
      <point x="155" y="134" type="line" smooth="yes"/>
      <point x="155" y="152.761"/>
      <point x="172.8" y="151"/>
      <point x="187" y="151" type="curve"/>
      <point x="187" y="-37" type="line" smooth="yes"/>
      <point x="187" y="-119"/>
      <point x="167" y="-200"/>
      <point x="72" y="-200" type="curve" smooth="yes"/>
      <point x="0" y="-200" type="line"/>
      <point x="0" y="-168" type="line"/>
      <point x="72" y="-168" type="line" smooth="yes"/>
      <point x="139" y="-168"/>
      <point x="155" y="-119"/>
      <point x="155" y="-37" type="curve" smooth="yes"/>
    </contour>
  </outline>
</glyph>
<glyph name="kashida-ar" format="2">
  <advance width="240"/>
  <unicode hex="0640"/>
  <anchor x="122" y="314" name="dotAbove"/>
  <anchor x="122" y="-109" name="dotBelow"/>
  <anchor x="122" y="314" name="hamzaAbove"/>
  <anchor x="122" y="-109" name="hamzaBelow"/>
  <anchor x="122" y="352" name="markAbove"/>
  <anchor x="132" y="-139" name="markBelow"/>
  <anchor x="122" y="0" name="ringBelow"/>
  <outline>
    <contour>
      <point x="250" y="0" type="line"/>
      <point x="0" y="0" type="line"/>
      <point x="0" y="32" type="line"/>
      <point x="250" y="32" type="line"/>
    </contour>
  </outline>
</glyph>
<glyph name="uni0640" format="2">
  <advance width="240"/>
  <unicode hex="0640"/>
  <anchor x="122.0" y="-109.0" name="dotBelow"/>
  <anchor x="122.0" y="-109.0" name="hamzaBelow"/>
  <anchor x="132.0" y="-139.0" name="markBelow"/>
  <anchor x="122.0" y="314.0" name="dotAbove"/>
  <anchor x="122.0" y="314.0" name="hamzaAbove"/>
  <anchor x="122.0" y="352.0" name="markAbove"/>
  <anchor x="122.0" y="0" name="ringBelow"/>
  <outline>
    <contour>
      <point x="250.0" y="0.0" type="line"/>
      <point x="0.0" y="0.0" type="line"/>
      <point x="0.0" y="32.0" type="line"/>
      <point x="250.0" y="32.0" type="line"/>
    </contour>
  </outline>
</glyph>
<glyph name="lam-ar" format="2">
  <advance width="480"/>
  <unicode hex="0644"/>
  <anchor x="426" y="450" name="dash"/>
  <anchor x="424" y="674" name="dotAbove"/>
  <anchor x="227" y="-258" name="dotBelow"/>
  <anchor x="424" y="712" name="markAbove"/>
  <anchor x="227" y="-278" name="markBelow"/>
  <outline>
    <contour>
      <point x="408" y="624" type="line"/>
      <point x="440" y="624" type="line"/>
      <point x="440" y="-78" type="line" smooth="yes"/>
      <point x="440" y="-113"/>
      <point x="414" y="-148"/>
      <point x="370" y="-148" type="curve" smooth="yes"/>
      <point x="111" y="-148" type="line" smooth="yes"/>
      <point x="70" y="-148"/>
      <point x="40" y="-120"/>
      <point x="40" y="-79" type="curve" smooth="yes"/>
      <point x="40" y="110" type="line"/>
      <point x="72" y="110" type="line"/>
      <point x="72" y="-79" type="line" smooth="yes"/>
      <point x="72" y="-102"/>
      <point x="86" y="-116"/>
      <point x="111" y="-116" type="curve" smooth="yes"/>
      <point x="370" y="-116" type="line" smooth="yes"/>
      <point x="394" y="-116"/>
      <point x="408" y="-97"/>
      <point x="408" y="-78" type="curve" smooth="yes"/>
    </contour>
  </outline>
</glyph>
<glyph name="meem-ar" format="2">
  <advance width="448"/>
  <unicode hex="0645"/>
  <anchor x="240" y="449" name="dotAbove"/>
  <anchor x="162" y="-109" name="dotBelow"/>
  <anchor x="240" y="487" name="markAbove"/>
  <anchor x="162" y="-129" name="markBelow"/>
  <outline>
    <contour>
      <point x="109" y="62.716" type="line"/>
      <point x="109" y="201" type="line" smooth="yes"/>
      <point x="109" y="236"/>
      <point x="121" y="265"/>
      <point x="142" y="285" type="curve" smooth="yes"/>
      <point x="190" y="332"/>
      <point x="278" y="330"/>
      <point x="331" y="275" type="curve" smooth="yes"/>
      <point x="384" y="219"/>
      <point x="408" y="169"/>
      <point x="408" y="125" type="curve" smooth="yes"/>
      <point x="408" y="41"/>
      <point x="322" y="0"/>
      <point x="237" y="0" type="curve" smooth="yes"/>
      <point x="109" y="0" type="line" smooth="yes"/>
      <point x="85" y="0"/>
      <point x="72" y="-18"/>
      <point x="72" y="-38" type="curve" smooth="yes"/>
      <point x="72" y="-200" type="line"/>
      <point x="40" y="-200" type="line"/>
      <point x="40" y="-38" type="line" smooth="yes"/>
      <point x="40" y="-4"/>
      <point x="65" y="32"/>
      <point x="109" y="32" type="curve" smooth="yes"/>
      <point x="237" y="32" type="line" smooth="yes"/>
      <point x="317" y="32"/>
      <point x="376" y="69"/>
      <point x="376" y="125" type="curve" smooth="yes"/>
      <point x="376" y="157"/>
      <point x="357" y="200"/>
      <point x="307" y="253" type="curve" smooth="yes"/>
      <point x="266" y="296"/>
      <point x="199" y="295"/>
      <point x="165" y="262" type="curve" smooth="yes"/>
      <point x="151" y="248"/>
      <point x="141" y="228"/>
      <point x="141" y="201" type="curve" smooth="yes"/>
      <point x="141" y="62.716" type="line"/>
    </contour>
  </outline>
</glyph>
<glyph name="heh-ar" format="2">
  <advance width="360"/>
  <unicode hex="0647"/>
  <anchor x="220" y="504" name="dotAbove"/>
  <anchor x="204" y="-110" name="dotBelow"/>
  <anchor x="220" y="449" name="hamzaAbove"/>
  <anchor x="220" y="449" name="kafAbove"/>
  <anchor x="220" y="542" name="markAbove"/>
  <anchor x="204" y="-130" name="markBelow"/>
  <outline>
    <contour>
      <point x="265" y="352" type="line"/>
      <point x="219" y="241"/>
      <point x="158" y="202"/>
      <point x="90" y="138" type="curve" smooth="yes"/>
      <point x="62" y="107"/>
      <point x="69" y="71"/>
      <point x="93" y="50" type="curve" smooth="yes"/>
      <point x="105" y="39"/>
      <point x="122" y="32"/>
      <point x="142" y="32" type="curve" smooth="yes"/>
      <point x="252" y="32" type="line" smooth="yes"/>
      <point x="271" y="32"/>
      <point x="288" y="49"/>
      <point x="288" y="68" type="curve" smooth="yes"/>
      <point x="288" y="327" type="line"/>
      <point x="320" y="327" type="line"/>
      <point x="320" y="68" type="line" smooth="yes"/>
      <point x="320" y="31"/>
      <point x="289" y="0"/>
      <point x="252" y="0" type="curve" smooth="yes"/>
      <point x="142" y="0" type="line" smooth="yes"/>
      <point x="114" y="0"/>
      <point x="89" y="11"/>
      <point x="71" y="27" type="curve" smooth="yes"/>
      <point x="37" y="58"/>
      <point x="24" y="120"/>
      <point x="68" y="161" type="curve" smooth="yes"/>
      <point x="139" y="227"/>
      <point x="192" y="260"/>
      <point x="235" y="364" type="curve"/>
    </contour>
  </outline>
</glyph>
<glyph name="waw-ar" format="2">
  <advance width="387"/>
  <unicode hex="0648"/>
  <anchor x="325" y="-76" name="dash"/>
  <anchor x="233" y="434" name="dotAbove"/>
  <anchor x="169" y="-309" name="dotBelow"/>
  <anchor x="233" y="434" name="hamzaAbove"/>
  <anchor x="233" y="434" name="kafAbove"/>
  <anchor x="193" y="472" name="markAbove"/>
  <anchor x="169" y="-329" name="markBelow"/>
  <anchor x="169" y="-199" name="ringBelow"/>
  <outline>
    <contour>
      <point x="331" y="0" type="line"/>
      <point x="171" y="0" type="line" smooth="yes"/>
      <point x="101" y="0"/>
      <point x="47" y="58"/>
      <point x="51" y="120" type="curve" smooth="yes"/>
      <point x="61" y="236"/>
      <point x="159" y="303"/>
      <point x="239" y="304" type="curve" smooth="yes"/>
      <point x="296" y="304"/>
      <point x="347" y="269"/>
      <point x="347" y="197" type="curve" smooth="yes"/>
      <point x="347" y="-37" type="line" smooth="yes"/>
      <point x="347" y="-118"/>
      <point x="286" y="-199"/>
      <point x="193" y="-199" type="curve" smooth="yes"/>
      <point x="0" y="-199" type="line"/>
      <point x="0" y="-167" type="line"/>
      <point x="193" y="-167" type="line" smooth="yes"/>
      <point x="266" y="-167"/>
      <point x="315" y="-104"/>
      <point x="315" y="-37" type="curve" smooth="yes"/>
      <point x="315" y="197" type="line" smooth="yes"/>
      <point x="315" y="250"/>
      <point x="283" y="272"/>
      <point x="240" y="272" type="curve" smooth="yes"/>
      <point x="176" y="272"/>
      <point x="92" y="216"/>
      <point x="83" y="118" type="curve" smooth="yes"/>
      <point x="81" y="76"/>
      <point x="119" y="32"/>
      <point x="171" y="32" type="curve" smooth="yes"/>
      <point x="331" y="32" type="line"/>
    </contour>
  </outline>
</glyph>
<glyph name="alefMaksura-ar" format="2">
  <advance width="544"/>
  <unicode hex="0649"/>
  <anchor x="207" y="342" name="dotAbove"/>
  <anchor x="279" y="-184" name="dotBelow"/>
  <anchor x="207" y="342" name="hamzaAbove"/>
  <anchor x="279" y="-184" name="hamzaBelow"/>
  <anchor x="207" y="342" name="kafAbove"/>
  <anchor x="207" y="379" name="markAbove"/>
  <anchor x="279" y="-204" name="markBelow"/>
  <anchor x="279" y="-94" name="ringBelow"/>
  <anchor x="43" y="174" name="tailAbove"/>
  <outline>
    <contour>
      <point x="504" y="212" type="line"/>
      <point x="504" y="180" type="line"/>
      <point x="396" y="180" type="line" smooth="yes"/>
      <point x="366" y="183"/>
      <point x="346" y="161"/>
      <point x="371" y="128" type="curve" smooth="yes"/>
      <point x="482" y="-6" type="line" smooth="yes"/>
      <point x="513.284" y="-43.766"/>
      <point x="481" y="-92"/>
      <point x="427" y="-94" type="curve" smooth="yes"/>
      <point x="197" y="-94" type="line" smooth="yes"/>
      <point x="129" y="-94"/>
      <point x="40" y="-56"/>
      <point x="40" y="47" type="curve" smooth="yes"/>
      <point x="40" y="209" type="line"/>
      <point x="72" y="209" type="line"/>
      <point x="72" y="47" type="line" smooth="yes"/>
      <point x="72" y="-32"/>
      <point x="137" y="-59"/>
      <point x="197" y="-62" type="curve" smooth="yes"/>
      <point x="427" y="-62" type="line" smooth="yes"/>
      <point x="459" y="-62"/>
      <point x="471" y="-40"/>
      <point x="458" y="-26" type="curve" smooth="yes"/>
      <point x="347" y="108" type="line" smooth="yes"/>
      <point x="303.956" y="159.963"/>
      <point x="341" y="212"/>
      <point x="396" y="212" type="curve" smooth="yes"/>
    </contour>
  </outline>
</glyph>
<glyph name="dammatan-ar" format="2">
  <unicode hex="064C"/>
  <anchor x="0" y="0" name="_markAbove"/>
  <anchor x="0" y="0" name="_markAboveDot"/>
  <outline>
    <contour>
      <point x="13" y="35" type="line"/>
      <point x="-2" y="76" type="line" smooth="yes"/>
      <point x="-12" y="106"/>
      <point x="3" y="138"/>
      <point x="32" y="147" type="curve" smooth="yes"/>
      <point x="80" y="160"/>
      <point x="121" y="130"/>
      <point x="133" y="97" type="curve" smooth="yes"/>
      <point x="142" y="73"/>
      <point x="134" y="44"/>
      <point x="103" y="33" type="curve" smooth="yes"/>
      <point x="-36" y="-17" type="line" smooth="yes"/>
      <point x="-69" y="-29"/>
      <point x="-112" y="-17"/>
      <point x="-126" y="22" type="curve" smooth="yes"/>
      <point x="-140" y="62" type="line" smooth="yes"/>
      <point x="-143" y="70"/>
      <point x="-139" y="79"/>
      <point x="-131" y="82" type="curve" smooth="yes"/>
      <point x="-123" y="85"/>
      <point x="-113" y="81"/>
      <point x="-110" y="73" type="curve" smooth="yes"/>
      <point x="-96" y="33" type="line" smooth="yes"/>
      <point x="-89" y="13"/>
      <point x="-66" y="6"/>
      <point x="-47" y="13" type="curve" smooth="yes"/>
    </contour>
    <contour>
      <point x="43" y="46" type="line"/>
      <point x="92" y="63" type="line" smooth="yes"/>
      <point x="105" y="68"/>
      <point x="107" y="75"/>
      <point x="103" y="86" type="curve" smooth="yes"/>
      <point x="96" y="104"/>
      <point x="71" y="124"/>
      <point x="40" y="116" type="curve"/>
      <point x="31" y="113"/>
      <point x="23" y="101"/>
      <point x="28" y="87" type="curve" smooth="yes"/>
    </contour>
  </outline>
</glyph>
<glyph name="uni064C" format="2">
  <unicode hex="064C"/>
  <anchor x="0" y="0" name="_markAbove"/>
  <anchor x="0" y="0" name="_markAboveDot"/>
  <outline>
    <contour>
      <point x="13.0" y="35.0" type="line"/>
      <point x="-2.0" y="76.0" type="line" smooth="yes"/>
      <point x="-12.0" y="106.0"/>
      <point x="3.0" y="138.0"/>
      <point x="32.0" y="147.0" type="curve" smooth="yes"/>
      <point x="80.0" y="160.0"/>
      <point x="121.0" y="130.0"/>
      <point x="133.0" y="97.0" type="curve" smooth="yes"/>
      <point x="142.0" y="73.0"/>
      <point x="134.0" y="44.0"/>
      <point x="103.0" y="33.0" type="curve" smooth="yes"/>
      <point x="-36.0" y="-17.0" type="line" smooth="yes"/>
      <point x="-69.0" y="-29.0"/>
      <point x="-112.0" y="-17.0"/>
      <point x="-126.0" y="22.0" type="curve" smooth="yes"/>
      <point x="-140.0" y="62.0" type="line" smooth="yes"/>
      <point x="-143.0" y="70.0"/>
      <point x="-139.0" y="79.0"/>
      <point x="-131.0" y="82.0" type="curve" smooth="yes"/>
      <point x="-123.0" y="85.0"/>
      <point x="-113.0" y="81.0"/>
      <point x="-110.0" y="73.0" type="curve" smooth="yes"/>
      <point x="-96.0" y="33.0" type="line" smooth="yes"/>
      <point x="-89.0" y="13.0"/>
      <point x="-66.0" y="6.0"/>
      <point x="-47.0" y="13.0" type="curve" smooth="yes"/>
    </contour>
    <contour>
      <point x="43.0" y="46.0" type="line"/>
      <point x="92.0" y="63.0" type="line" smooth="yes"/>
      <point x="105.0" y="68.0"/>
      <point x="107.0" y="75.0"/>
      <point x="103.0" y="86.0" type="curve" smooth="yes"/>
      <point x="96.0" y="104.0"/>
      <point x="71.0" y="124.0"/>
      <point x="40.0" y="116.0" type="curve"/>
      <point x="31.0" y="113.0"/>
      <point x="23.0" y="101.0"/>
      <point x="28.0" y="87.0" type="curve" smooth="yes"/>
    </contour>
  </outline>
</glyph>
<glyph name="fatha-ar" format="2">
  <unicode hex="064E"/>
  <anchor x="0" y="0" name="_markAbove"/>
  <anchor x="0" y="0" name="_markAboveDot"/>
  <outline>
    <contour>
      <point x="-115" y="-1" type="curve" smooth="yes"/>
      <point x="-118" y="7"/>
      <point x="-113" y="16"/>
      <point x="-105" y="19" type="curve" smooth="yes"/>
      <point x="94" y="92" type="line" smooth="yes"/>
      <point x="102" y="95"/>
      <point x="112" y="91"/>
      <point x="115" y="83" type="curve" smooth="yes"/>
      <point x="118" y="75"/>
      <point x="113" y="65"/>
      <point x="105" y="62" type="curve" smooth="yes"/>
      <point x="-94" y="-11" type="line" smooth="yes"/>
      <point x="-102" y="-14"/>
      <point x="-112" y="-9"/>
    </contour>
  </outline>
</glyph>
<glyph name="uni064E" format="2">
  <unicode hex="064E"/>
  <anchor x="0" y="0" name="_markAbove"/>
  <anchor x="0" y="0" name="_markAboveDot"/>
  <outline>
    <contour>
      <point x="-115.0" y="-1.0" type="curve" smooth="yes"/>
      <point x="-118.0" y="7.0"/>
      <point x="-113.0" y="16.0"/>
      <point x="-105.0" y="19.0" type="curve" smooth="yes"/>
      <point x="94.0" y="92.0" type="line" smooth="yes"/>
      <point x="102.0" y="95.0"/>
      <point x="112.0" y="91.0"/>
      <point x="115.0" y="83.0" type="curve" smooth="yes"/>
      <point x="118.0" y="75.0"/>
      <point x="113.0" y="65.0"/>
      <point x="105.0" y="62.0" type="curve" smooth="yes"/>
      <point x="-94.0" y="-11.0" type="line" smooth="yes"/>
      <point x="-102.0" y="-14.0"/>
      <point x="-112.0" y="-9.0"/>
    </contour>
  </outline>
</glyph>
<glyph name="damma-ar" format="2">
  <unicode hex="064F"/>
  <anchor x="0" y="0" name="_markAbove"/>
  <anchor x="0" y="0" name="_markAboveDot"/>
  <outline>
    <contour>
      <point x="-25" y="39" type="line"/>
      <point x="-40" y="80" type="line" smooth="yes"/>
      <point x="-50" y="110"/>
      <point x="-35" y="142"/>
      <point x="-6" y="151" type="curve" smooth="yes"/>
      <point x="42" y="164"/>
      <point x="83" y="134"/>
      <point x="95" y="101" type="curve" smooth="yes"/>
      <point x="104" y="77"/>
      <point x="96" y="48"/>
      <point x="65" y="37" type="curve" smooth="yes"/>
      <point x="-102" y="-23" type="line" smooth="yes"/>
      <point x="-110" y="-26"/>
      <point x="-120" y="-22"/>
      <point x="-123" y="-14" type="curve" smooth="yes"/>
      <point x="-126" y="-6"/>
      <point x="-121" y="4"/>
      <point x="-113" y="7" type="curve" smooth="yes"/>
    </contour>
    <contour>
      <point x="5" y="50" type="line"/>
      <point x="54" y="67" type="line" smooth="yes"/>
      <point x="67" y="72"/>
      <point x="69" y="79"/>
      <point x="65" y="90" type="curve" smooth="yes"/>
      <point x="58" y="108"/>
      <point x="33" y="128"/>
      <point x="2" y="120" type="curve"/>
      <point x="-7" y="117"/>
      <point x="-15" y="105"/>
      <point x="-10" y="91" type="curve" smooth="yes"/>
    </contour>
  </outline>
</glyph>
<glyph name="shadda-ar" format="2">
  <unicode hex="0651"/>
  <anchor x="0" y="0" name="_markAbove"/>
  <anchor x="0" y="0" name="_markAboveDot"/>
  <anchor x="0" y="191" name="markAbove"/>
  <outline>
    <contour>
      <point x="-114" y="109" type="line" smooth="yes"/>
      <point x="-114" y="118"/>
      <point x="-107" y="125"/>
      <point x="-98" y="125" type="curve" smooth="yes"/>
      <point x="-89" y="125"/>
      <point x="-82" y="118"/>
      <point x="-82" y="109" type="curve" smooth="yes"/>
      <point x="-82" y="2" type="line"/>
      <point x="-71" y="8"/>
      <point x="-59" y="1"/>
      <point x="-57" y="-7" type="curve" smooth="yes"/>
      <point x="-55" y="-15"/>
      <point x="-59.027" y="-24.064"/>
      <point x="-67.027" y="-26.064" type="curve" smooth="yes"/>
      <point x="-79.027" y="-29.064"/>
      <point x="-92" y="-29"/>
      <point x="-101" y="-22" type="curve" smooth="yes"/>
      <point x="-113" y="-13"/>
      <point x="-114" y="2"/>
      <point x="-114" y="10" type="curve" smooth="yes"/>
    </contour>
    <contour>
      <point x="-16" y="128" type="line" smooth="yes"/>
      <point x="-16" y="137"/>
      <point x="-9" y="144"/>
      <point x="0" y="144" type="curve" smooth="yes"/>
      <point x="9" y="144"/>
      <point x="16" y="137"/>
      <point x="16" y="128" type="curve" smooth="yes"/>
      <point x="16" y="29" type="line" smooth="yes"/>
      <point x="16" y="9"/>
      <point x="1" y="-2"/>
      <point x="-16" y="-8" type="curve" smooth="yes"/>
      <point x="-67" y="-26" type="line" smooth="yes"/>
      <point x="-75" y="-29"/>
      <point x="-84" y="-24"/>
      <point x="-87" y="-16" type="curve" smooth="yes"/>
      <point x="-90" y="-8"/>
      <point x="-84.965" y="1.243"/>
      <point x="-77" y="4" type="curve" smooth="yes"/>
      <point x="-16.078" y="25.113" type="line"/>
    </contour>
    <contour>
      <point x="84" y="164" type="line" smooth="yes"/>
      <point x="84" y="173"/>
      <point x="91" y="180"/>
      <point x="100" y="180" type="curve" smooth="yes"/>
      <point x="109" y="180"/>
      <point x="116" y="173"/>
      <point x="116" y="164" type="curve" smooth="yes"/>
      <point x="116" y="65" type="line" smooth="yes"/>
      <point x="116" y="45"/>
      <point x="100" y="33"/>
      <point x="86" y="28" type="curve" smooth="yes"/>
      <point x="47" y="14" type="line" smooth="yes"/>
      <point x="39" y="11"/>
      <point x="29" y="16"/>
      <point x="26" y="24" type="curve" smooth="yes"/>
      <point x="23" y="32"/>
      <point x="28" y="42"/>
      <point x="36" y="45" type="curve" smooth="yes"/>
      <point x="84.067" y="61.394" type="line"/>
    </contour>
  </outline>
</glyph>
<glyph name="sukun-ar" format="2">
  <unicode hex="0652"/>
  <anchor x="0" y="0" name="_markAbove"/>
  <anchor x="0" y="0" name="_markAboveDot"/>
  <outline>
    <contour>
      <point x="-98" y="74" type="curve" smooth="yes"/>
      <point x="-98" y="128"/>
      <point x="-54" y="172"/>
      <point x="0" y="172" type="curve" smooth="yes"/>
      <point x="54" y="172"/>
      <point x="98" y="128"/>
      <point x="98" y="74" type="curve" smooth="yes"/>
      <point x="98" y="20"/>
      <point x="54" y="-25"/>
      <point x="0" y="-25" type="curve" smooth="yes"/>
      <point x="-54" y="-25"/>
      <point x="-98" y="20"/>
    </contour>
    <contour>
      <point x="-66" y="74" type="curve" smooth="yes"/>
      <point x="-66" y="37"/>
      <point x="-37" y="7"/>
      <point x="0" y="7" type="curve" smooth="yes"/>
      <point x="37" y="7"/>
      <point x="66" y="37"/>
      <point x="66" y="74" type="curve" smooth="yes"/>
      <point x="66" y="111"/>
      <point x="37" y="140"/>
      <point x="0" y="140" type="curve" smooth="yes"/>
      <point x="-37" y="140"/>
      <point x="-66" y="111"/>
    </contour>
  </outline>
</glyph>
<glyph name="madda-ar" format="2">
  <unicode hex="0653"/>
  <anchor x="0" y="0" name="_hamzaAbove"/>
  <outline>
    <contour>
      <point x="-123" y="-44" type="line"/>
      <point x="-155" y="-44" type="line"/>
      <point x="-155" y="9" type="line" smooth="yes"/>
      <point x="-155" y="41.11"/>
      <point x="-133.353" y="62"/>
      <point x="-100" y="62" type="curve" smooth="yes"/>
      <point x="139" y="62" type="line"/>
      <point x="139" y="30" type="line"/>
      <point x="-100" y="30" type="line" smooth="yes"/>
      <point x="-118.647" y="30"/>
      <point x="-123" y="24.89"/>
      <point x="-123" y="9" type="curve" smooth="yes"/>
    </contour>
  </outline>
</glyph>
<glyph name="fathaHorizont-ar" format="2">
  <unicode hex="0659"/>
  <anchor x="0" y="0" name="_markAbove"/>
  <anchor x="0" y="0" name="_markAboveDot"/>
  <outline>
    <contour>
      <point x="-122.258" y="40.838" type="curve" smooth="yes"/>
      <point x="-122.341" y="49.382"/>
      <point x="-114.565" y="56.129"/>
      <point x="-106.021" y="56.212" type="curve" smooth="yes"/>
      <point x="105.945" y="56.747" type="line" smooth="yes"/>
      <point x="114.489" y="56.83"/>
      <point x="122.518" y="49.651"/>
      <point x="122.601" y="41.107" type="curve" smooth="yes"/>
      <point x="122.683" y="32.564"/>
      <point x="114.565" y="24.877"/>
      <point x="106.021" y="24.794" type="curve" smooth="yes"/>
      <point x="-105.945" y="24.259" type="line" smooth="yes"/>
      <point x="-114.489" y="24.176"/>
      <point x="-122.176" y="32.294"/>
    </contour>
  </outline>
</glyph>
<glyph name="uni0659" format="2">
  <unicode hex="0659"/>
  <anchor x="0" y="0" name="_markAbove"/>
  <anchor x="0" y="0" name="_markAboveDot"/>
  <outline>
    <contour>
      <point x="-122.2584625455913" y="40.83791369371403" type="curve" smooth="yes"/>
      <point x="-122.34137926134368" y="49.3815150899783"/>
      <point x="-114.5647348674831" y="56.12864796042313"/>
      <point x="-106.02113347121885" y="56.2115646761755" type="curve" smooth="yes"/>
      <point x="105.94516852795076" y="56.74711747173873" type="line" smooth="yes"/>
      <point x="114.48876992421505" y="56.83003418749112"/>
      <point x="122.51761555877147" y="49.651062271090794"/>
      <point x="122.60053227452381" y="41.10746087482652" type="curve" smooth="yes"/>
      <point x="122.68344899027606" y="32.563859478562314"/>
      <point x="114.56478445308997" y="24.8770339873315"/>
      <point x="106.0211830568257" y="24.794117271579132" type="curve" smooth="yes"/>
      <point x="-105.9451189423439" y="24.258564476015895" type="line" smooth="yes"/>
      <point x="-114.48872033860819" y="24.17564776026352"/>
      <point x="-122.17554582983892" y="32.29431229744975"/>
    </contour>
  </outline>
</glyph>
<glyph name="vinvertedabove-ar" format="2">
  <unicode hex="065B"/>
  <anchor x="0" y="25" name="_dotAbove"/>
  <anchor x="0" y="25" name="_markAbove"/>
  <anchor x="0" y="25" name="_markAboveDot"/>
  <anchor x="0" y="237" name="markAbove"/>
  <outline>
    <contour>
      <point x="-138" y="21" type="line"/>
      <point x="-116" y="0" type="line"/>
      <point x="-2" y="126" type="line"/>
      <point x="2" y="126" type="line"/>
      <point x="116" y="0" type="line"/>
      <point x="138" y="21" type="line"/>
      <point x="21" y="165" type="line"/>
      <point x="-21" y="165" type="line"/>
    </contour>
  </outline>
</glyph>
<glyph name="zero-ar" format="2">
  <advance width="250"/>
  <unicode hex="0660"/>
  <outline>
    <contour>
      <point x="90" y="329" type="curve" smooth="yes"/>
      <point x="90" y="348.32"/>
      <point x="105.68" y="364"/>
      <point x="125" y="364" type="curve" smooth="yes"/>
      <point x="144.32" y="364"/>
      <point x="160" y="348.32"/>
      <point x="160" y="329" type="curve" smooth="yes"/>
      <point x="160" y="309.68"/>
      <point x="144.32" y="294"/>
      <point x="125" y="294" type="curve" smooth="yes"/>
      <point x="105.68" y="294"/>
      <point x="90" y="309.68"/>
    </contour>
  </outline>
</glyph>
<glyph name="one-ar" format="2">
  <advance width="212"/>
  <unicode hex="0661"/>
  <outline>
    <contour>
      <point x="90" y="624" type="line"/>
      <point x="122" y="624" type="line"/>
      <point x="122" y="0" type="line"/>
      <point x="90" y="0" type="line"/>
    </contour>
  </outline>
</glyph>
<glyph name="uni0661" format="2">
  <advance width="212"/>
  <unicode hex="0661"/>
  <outline>
    <contour>
      <point x="90.0" y="624.0" type="line"/>
      <point x="122.0" y="624.0" type="line"/>
      <point x="122.0" y="0.0" type="line"/>
      <point x="90.0" y="0.0" type="line"/>
    </contour>
  </outline>
</glyph>
<glyph name="two-ar" format="2">
  <advance width="332"/>
  <unicode hex="0662"/>
  <outline>
    <contour>
      <point x="62" y="0" type="line"/>
      <point x="30" y="0" type="line"/>
      <point x="30" y="554" type="line" smooth="yes"/>
      <point x="30" y="593.31"/>
      <point x="59.951" y="624"/>
      <point x="98" y="624" type="curve" smooth="yes"/>
      <point x="302" y="624" type="line"/>
      <point x="302" y="592" type="line"/>
      <point x="98" y="592" type="line" smooth="yes"/>
      <point x="78.049" y="592"/>
      <point x="62" y="576.69"/>
      <point x="62" y="554" type="curve" smooth="yes"/>
    </contour>
  </outline>
</glyph>
<glyph name="three-ar" format="2">
  <advance width="460"/>
  <unicode hex="0663"/>
  <outline>
    <contour>
      <point x="30" y="624" type="line"/>
      <point x="62" y="624" type="line"/>
      <point x="62" y="0" type="line"/>
      <point x="30" y="0" type="line"/>
    </contour>
    <contour>
      <point x="214" y="624" type="line"/>
      <point x="246" y="624" type="line"/>
      <point x="246" y="477" type="line" smooth="yes"/>
      <point x="246" y="439.362"/>
      <point x="216.596" y="409"/>
      <point x="177" y="409" type="curve" smooth="yes"/>
      <point x="47" y="409" type="line"/>
      <point x="47" y="441" type="line"/>
      <point x="177" y="441" type="line" smooth="yes"/>
      <point x="199.404" y="441"/>
      <point x="214" y="456.638"/>
      <point x="214" y="477" type="curve" smooth="yes"/>
    </contour>
    <contour>
      <point x="398" y="624" type="line"/>
      <point x="430" y="624" type="line"/>
      <point x="430" y="477" type="line" smooth="yes"/>
      <point x="430" y="439.362"/>
      <point x="400.596" y="409"/>
      <point x="361" y="409" type="curve" smooth="yes"/>
      <point x="238" y="409" type="line"/>
      <point x="238" y="441" type="line"/>
      <point x="361" y="441" type="line" smooth="yes"/>
      <point x="383.404" y="441"/>
      <point x="398" y="456.638"/>
      <point x="398" y="477" type="curve" smooth="yes"/>
    </contour>
  </outline>
</glyph>
<glyph name="four-ar" format="2">
  <advance width="387"/>
  <unicode hex="0664"/>
  <outline>
    <contour>
      <point x="238.329" y="584.868" type="line"/>
      <point x="257.345" y="559.132" type="line"/>
      <point x="100.283" y="443.086" type="line" smooth="yes"/>
      <point x="83.089" y="430.634"/>
      <point x="65.758" y="419.158"/>
      <point x="91.901" y="401.185" type="curve" smooth="yes"/>
      <point x="219.901" y="313.185" type="line" smooth="yes"/>
      <point x="227.058" y="308.265"/>
      <point x="229.027" y="298.145"/>
      <point x="223.979" y="290.875" type="curve" smooth="yes"/>
      <point x="89.919" y="97.787" type="line" smooth="yes"/>
      <point x="74.235" y="75.83"/>
      <point x="49.314" y="33.139"/>
      <point x="86.865" y="33" type="curve" smooth="yes"/>
      <point x="357.894" y="32" type="line"/>
      <point x="357.78" y="0" type="line"/>
      <point x="74.78" y="1" type="line" smooth="yes"/>
      <point x="47.641" y="1"/>
      <point x="29.977" y="17.182"/>
      <point x="30" y="39.465" type="curve" smooth="yes"/>
      <point x="30.03" y="67.889"/>
      <point x="51.315" y="98.798"/>
      <point x="63.755" y="116.213" type="curve" smooth="yes"/>
      <point x="188.527" y="295.922" type="line"/>
      <point x="73.772" y="374.815" type="line" smooth="yes"/>
      <point x="20.942" y="411.209"/>
      <point x="46.305" y="443.508"/>
      <point x="81.391" y="468.914" type="curve" smooth="yes"/>
    </contour>
  </outline>
</glyph>
<glyph name="five-ar" format="2">
  <advance width="462"/>
  <unicode hex="0665"/>
  <outline>
    <contour>
      <point x="296.9" y="544.655" type="curve" smooth="yes"/>
      <point x="370.976" y="499.025"/>
      <point x="431.778" y="350.681"/>
      <point x="432.798" y="220.046" type="curve" smooth="yes"/>
      <point x="433.72" y="101.806"/>
      <point x="381.396" y="-10.974"/>
      <point x="232.673" y="-12" type="curve" smooth="yes"/>
      <point x="94.004" y="-12.956"/>
      <point x="29.392" y="85.178"/>
      <point x="30.004" y="220.1" type="curve" smooth="yes"/>
      <point x="30.598" y="350.81"/>
      <point x="92.606" y="496.014"/>
      <point x="161.769" y="541.366" type="curve" smooth="yes"/>
      <point x="204.495" y="569.477"/>
      <point x="253.793" y="570.747"/>
    </contour>
    <contour>
      <point x="280.225" y="517.345" type="curve" smooth="yes"/>
      <point x="247.315" y="537.263"/>
      <point x="212.63" y="536.523"/>
      <point x="179.356" y="514.634" type="curve" smooth="yes"/>
      <point x="121.431" y="476.649"/>
      <point x="65.009" y="339.857"/>
      <point x="63.277" y="220.1" type="curve" smooth="yes"/>
      <point x="61.581" y="102.792"/>
      <point x="117.91" y="19.153"/>
      <point x="232.452" y="20" type="curve" smooth="yes"/>
      <point x="358.224" y="20.93"/>
      <point x="401.657" y="109.771"/>
      <point x="400.799" y="219.796" type="curve" smooth="yes"/>
      <point x="399.836" y="343.218"/>
      <point x="337.833" y="481.857"/>
    </contour>
  </outline>
</glyph>
<glyph name="uni0665" format="2">
  <advance width="462"/>
  <unicode hex="0665"/>
  <outline>
    <contour>
      <point x="296.900390625" y="544.6552734375" type="curve" smooth="yes"/>
      <point x="370.9755859375" y="499.025390625"/>
      <point x="431.7783203125" y="350.6806640625"/>
      <point x="432.7978515625" y="220.0458984375" type="curve" smooth="yes"/>
      <point x="433.7197265625" y="101.8056640625"/>
      <point x="381.3955078125" y="-10.9736328125"/>
      <point x="232.6728515625" y="-12.0" type="curve" smooth="yes"/>
      <point x="94.00390625" y="-12.9560546875"/>
      <point x="29.3916015625" y="85.177734375"/>
      <point x="30.00390625" y="220.099609375" type="curve" smooth="yes"/>
      <point x="30.59765625" y="350.8095703125"/>
      <point x="92.6064453125" y="496.013671875"/>
      <point x="161.7685546875" y="541.3662109375" type="curve" smooth="yes"/>
      <point x="204.4951171875" y="569.4765625"/>
      <point x="253.79296875" y="570.7470703125"/>
    </contour>
    <contour>
      <point x="280.224609375" y="517.3447265625" type="curve" smooth="yes"/>
      <point x="247.3154296875" y="537.2626953125"/>
      <point x="212.6298828125" y="536.5234375"/>
      <point x="179.3564453125" y="514.6337890625" type="curve" smooth="yes"/>
      <point x="121.4306640625" y="476.6494140625"/>
      <point x="65.0087890625" y="339.857421875"/>
      <point x="63.27734375" y="220.099609375" type="curve" smooth="yes"/>
      <point x="61.5810546875" y="102.7919921875"/>
      <point x="117.91015625" y="19.1533203125"/>
      <point x="232.4521484375" y="20.0" type="curve" smooth="yes"/>
      <point x="358.2236328125" y="20.9296875"/>
      <point x="401.6572265625" y="109.7705078125"/>
      <point x="400.798828125" y="219.7958984375" type="curve" smooth="yes"/>
      <point x="399.8359375" y="343.2177734375"/>
      <point x="337.8330078125" y="481.857421875"/>
    </contour>
  </outline>
</glyph>
<glyph name="six-ar" format="2">
  <advance width="396"/>
  <unicode hex="0666"/>
  <outline>
    <contour>
      <point x="30" y="592" type="line"/>
      <point x="30" y="624" type="line"/>
      <point x="298" y="624" type="line" smooth="yes"/>
      <point x="336.049" y="624"/>
      <point x="366" y="593.31"/>
      <point x="366" y="554" type="curve" smooth="yes"/>
      <point x="366" y="0" type="line"/>
      <point x="334" y="0" type="line"/>
      <point x="334" y="554" type="line" smooth="yes"/>
      <point x="334" y="576.69"/>
      <point x="317.951" y="592"/>
      <point x="298" y="592" type="curve" smooth="yes"/>
    </contour>
  </outline>
</glyph>
<glyph name="seven-ar" format="2">
  <advance width="478"/>
  <unicode hex="0667"/>
  <outline>
    <contour>
      <point x="417.76" y="618.05" type="line"/>
      <point x="448.719" y="609.95" type="line"/>
      <point x="296.719" y="28.95" type="line" smooth="yes"/>
      <point x="292.633" y="13.438"/>
      <point x="276.492" y="4.034"/>
      <point x="258.738" y="3.338" type="curve" smooth="yes"/>
      <point x="243.26" y="2.73"/>
      <point x="221.688" y="10.318"/>
      <point x="216" y="28.122" type="curve" smooth="yes"/>
      <point x="30" y="609.122" type="line"/>
      <point x="60.477" y="618.878" type="line"/>
      <point x="245.844" y="39.858" type="line"/>
      <point x="248.275" y="34.502"/>
      <point x="265.938" y="34.38"/>
      <point x="267.109" y="40.388" type="curve"/>
    </contour>
  </outline>
</glyph>
<glyph name="nine-ar" format="2">
  <advance width="371"/>
  <unicode hex="0669"/>
  <outline>
    <contour>
      <point x="325.912" y="329.861" type="line"/>
      <point x="254.092" y="325.371"/>
      <point x="113.276" y="302.632"/>
      <point x="54.255" y="394.664" type="curve" smooth="yes"/>
      <point x="3.093" y="474.442"/>
      <point x="40.168" y="572.96"/>
      <point x="102.534" y="607.661" type="curve"/>
      <point x="158.021" y="645.255"/>
      <point x="268.551" y="642.468"/>
      <point x="318.474" y="568.069" type="curve" smooth="yes"/>
      <point x="333.223" y="546.089"/>
      <point x="341.912" y="518.224"/>
      <point x="341.912" y="485" type="curve" smooth="yes"/>
      <point x="341.912" y="0" type="line"/>
      <point x="309.912" y="0" type="line"/>
      <point x="309.912" y="485" type="line" smooth="yes"/>
      <point x="309.912" y="513.334"/>
      <point x="302.572" y="534.843"/>
      <point x="291.115" y="551.392" type="curve" smooth="yes"/>
      <point x="249.587" y="611.378"/>
      <point x="163.528" y="604.096"/>
      <point x="118.482" y="579.904" type="curve" smooth="yes"/>
      <point x="72.146" y="555.02"/>
      <point x="40.182" y="480.151"/>
      <point x="81.326" y="411.733" type="curve"/>
      <point x="129.053" y="344.053"/>
      <point x="249.323" y="357.086"/>
      <point x="325.912" y="361.874" type="curve"/>
    </contour>
  </outline>
</glyph>
<glyph name="percent-ar" format="2">
  <advance width="497"/>
  <unicode hex="066A"/>
  <outline>
    <contour>
      <point x="43" y="-12" type="line"/>
      <point x="413" y="672" type="line"/>
      <point x="454" y="672" type="line"/>
      <point x="84" y="-12" type="line"/>
    </contour>
    <component base="zero-ar" xOffset="-48" yOffset="308"/>
    <component base="zero-ar" xOffset="295" yOffset="-306"/>
  </outline>
</glyph>
<glyph name="uni066A" format="2">
  <advance width="497"/>
  <unicode hex="066A"/>
  <outline>
    <contour>
      <point x="43.0" y="-12.0" type="line"/>
      <point x="413.0" y="672.0" type="line"/>
      <point x="454.0" y="672.0" type="line"/>
      <point x="84.0" y="-12.0" type="line"/>
    </contour>
    <component base="uni0660" xOffset="-48.0" yOffset="308.0"/>
    <component base="uni0660" xOffset="295.0" yOffset="-306.0"/>
  </outline>
</glyph>
<glyph name="decimalseparator-ar" format="2">
  <advance width="231"/>
  <unicode hex="066B"/>
  <outline>
    <contour>
      <point x="147" y="67" type="line"/>
      <point x="171" y="67" type="line"/>
      <point x="171" y="-94" type="line" smooth="yes"/>
      <point x="171" y="-116"/>
      <point x="161" y="-156"/>
      <point x="110" y="-156" type="curve" smooth="yes"/>
      <point x="60" y="-156" type="line"/>
      <point x="60" y="-132" type="line"/>
      <point x="110" y="-132" type="line" smooth="yes"/>
      <point x="137" y="-132"/>
      <point x="147" y="-116"/>
      <point x="147" y="-94" type="curve" smooth="yes"/>
    </contour>
  </outline>
</glyph>
<glyph name="uni066B" format="2">
  <advance width="231.0"/>
  <unicode hex="066B"/>
  <outline>
    <contour>
      <point x="147.0" y="67.0" type="line"/>
      <point x="171.0" y="67.0" type="line"/>
      <point x="171.0" y="-94.0" type="line" smooth="yes"/>
      <point x="171.0" y="-116.0"/>
      <point x="161.0" y="-156.0"/>
      <point x="110.0" y="-156.0" type="curve" smooth="yes"/>
      <point x="60.0" y="-156.0" type="line"/>
      <point x="60.0" y="-132.0" type="line"/>
      <point x="110.0" y="-132.0" type="line" smooth="yes"/>
      <point x="137.0" y="-132.0"/>
      <point x="147.0" y="-116.0"/>
      <point x="147.0" y="-94.0" type="curve" smooth="yes"/>
    </contour>
  </outline>
</glyph>
<glyph name="qafDotless-ar" format="2">
  <advance width="688"/>
  <unicode hex="066F"/>
  <anchor x="499" y="450" name="dotAbove"/>
  <anchor x="374" y="-299" name="dotBelow"/>
  <anchor x="499" y="488" name="markAbove"/>
  <anchor x="374" y="-319" name="markBelow"/>
  <outline>
    <contour>
      <point x="630" y="6" type="line"/>
      <point x="537" y="-6"/>
      <point x="417" y="-21"/>
      <point x="360" y="73" type="curve" smooth="yes"/>
      <point x="315" y="148"/>
      <point x="354" y="239"/>
      <point x="409" y="275" type="curve" smooth="yes"/>
      <point x="471" y="315"/>
      <point x="580" y="308"/>
      <point x="627" y="234" type="curve" smooth="yes"/>
      <point x="640" y="213"/>
      <point x="648" y="186"/>
      <point x="648" y="155" type="curve" smooth="yes"/>
      <point x="648" y="-129" type="line" smooth="yes"/>
      <point x="648" y="-164"/>
      <point x="620" y="-199"/>
      <point x="577" y="-199" type="curve" smooth="yes"/>
      <point x="155" y="-199" type="line" smooth="yes"/>
      <point x="91" y="-199"/>
      <point x="40" y="-156"/>
      <point x="40" y="-89" type="curve" smooth="yes"/>
      <point x="40" y="153" type="line"/>
      <point x="72" y="153" type="line"/>
      <point x="72" y="-89" type="line" smooth="yes"/>
      <point x="72" y="-138"/>
      <point x="105" y="-167"/>
      <point x="155" y="-167" type="curve" smooth="yes"/>
      <point x="577" y="-167" type="line" smooth="yes"/>
      <point x="602" y="-167"/>
      <point x="616" y="-148"/>
      <point x="616" y="-129" type="curve" smooth="yes"/>
      <point x="616" y="155" type="line" smooth="yes"/>
      <point x="616" y="181"/>
      <point x="610" y="201"/>
      <point x="600" y="217" type="curve" smooth="yes"/>
      <point x="565" y="273"/>
      <point x="477" y="281"/>
      <point x="427" y="249" type="curve" smooth="yes"/>
      <point x="384" y="221"/>
      <point x="353" y="146"/>
      <point x="388" y="89" type="curve" smooth="yes"/>
      <point x="432" y="16"/>
      <point x="515" y="26"/>
      <point x="630" y="38" type="curve"/>
    </contour>
  </outline>
</glyph>
<glyph name="alefabove-ar" format="2">
  <unicode hex="0670"/>
  <anchor x="0" y="0" name="_markAbove"/>
  <anchor x="0" y="0" name="_markAboveDot"/>
  <outline>
    <contour>
      <point x="-16" y="0" type="curve"/>
      <point x="-16" y="183" type="line"/>
      <point x="16" y="183" type="line"/>
      <point x="16" y="32" type="line" smooth="yes"/>
      <point x="16" y="18"/>
      <point x="5" y="0"/>
    </contour>
  </outline>
</glyph>
<glyph name="uni0673" format="2">
  <advance width="1000"/>
  <unicode hex="0673"/>
  <outline>
    <contour>
      <point x="0" y="-200" type="line"/>
      <point x="0" y="800" type="line"/>
      <point x="1000" y="800" type="line"/>
      <point x="1000" y="-200" type="line"/>
    </contour>
  </outline>
</glyph>
<glyph name="fehDotless-ar" format="2">
  <advance width="758"/>
  <unicode hex="06A1"/>
  <anchor x="569" y="549" name="dotAbove"/>
  <anchor x="379" y="-100" name="dotBelow"/>
  <anchor x="569" y="587" name="markAbove"/>
  <anchor x="379" y="-120" name="markBelow"/>
  <outline>
    <contour>
      <point x="700" y="105" type="line"/>
      <point x="607" y="93"/>
      <point x="487" y="78"/>
      <point x="430" y="172" type="curve" smooth="yes"/>
      <point x="385" y="247"/>
      <point x="424" y="338"/>
      <point x="479" y="374" type="curve" smooth="yes"/>
      <point x="541" y="414"/>
      <point x="650" y="407"/>
      <point x="697" y="333" type="curve" smooth="yes"/>
      <point x="710" y="312"/>
      <point x="718" y="285"/>
      <point x="718" y="254" type="curve" smooth="yes"/>
      <point x="718" y="70" type="line" smooth="yes"/>
      <point x="718" y="35"/>
      <point x="690" y="0"/>
      <point x="647" y="0" type="curve" smooth="yes"/>
      <point x="155" y="0" type="line" smooth="yes"/>
      <point x="91" y="0"/>
      <point x="40" y="43"/>
      <point x="40" y="110" type="curve" smooth="yes"/>
      <point x="40" y="262" type="line"/>
      <point x="72" y="262" type="line"/>
      <point x="72" y="110" type="line" smooth="yes"/>
      <point x="72" y="61"/>
      <point x="105" y="32"/>
      <point x="155" y="32" type="curve" smooth="yes"/>
      <point x="647" y="32" type="line" smooth="yes"/>
      <point x="672" y="32"/>
      <point x="686" y="51"/>
      <point x="686" y="70" type="curve" smooth="yes"/>
      <point x="686" y="254" type="line" smooth="yes"/>
      <point x="686" y="280"/>
      <point x="680" y="300"/>
      <point x="670" y="316" type="curve" smooth="yes"/>
      <point x="635" y="372"/>
      <point x="547" y="380"/>
      <point x="497" y="348" type="curve" smooth="yes"/>
      <point x="454" y="320"/>
      <point x="423" y="245"/>
      <point x="458" y="188" type="curve" smooth="yes"/>
      <point x="502" y="115"/>
      <point x="585" y="125"/>
      <point x="700" y="137" type="curve"/>
    </contour>
  </outline>
</glyph>
<glyph name="kafswash-ar" format="2">
  <advance width="850.63476"/>
  <unicode hex="06AA"/>
  <anchor x="181.469" y="482.159" name="markAbove"/>
  <anchor x="433" y="-179" name="markBelow"/>
  <outline>
    <contour>
      <point x="82" y="32" type="line"/>
      <point x="106" y="0" type="line"/>
      <point x="64" y="0" type="line"/>
      <point x="40" y="32" type="line"/>
    </contour>
    <component base="kafswash-ar.init" xOffset="64"/>
  </outline>
</glyph>
<glyph name="uni06AC" format="2">
  <advance width="1000"/>
  <unicode hex="06AC"/>
  <outline>
    <contour>
      <point x="0" y="-200" type="line"/>
      <point x="0" y="800" type="line"/>
      <point x="1000" y="800" type="line"/>
      <point x="1000" y="-200" type="line"/>
    </contour>
  </outline>
</glyph>
<glyph name="noonghunna-ar" format="2">
  <advance width="476"/>
  <unicode hex="06BA"/>
  <anchor x="238" y="302" name="dotAbove"/>
  <anchor x="238" y="-297" name="dotBelow"/>
  <anchor x="238" y="339" name="markAbove"/>
  <anchor x="238" y="-317" name="markBelow"/>
  <anchor x="238" y="-187" name="ringBelow"/>
  <outline>
    <contour>
      <point x="404" y="152" type="line"/>
      <point x="436" y="152" type="line"/>
      <point x="436" y="-119" type="line" smooth="yes"/>
      <point x="436" y="-153"/>
      <point x="408" y="-187"/>
      <point x="369" y="-187" type="curve" smooth="yes"/>
      <point x="230" y="-187" type="line" smooth="yes"/>
      <point x="124" y="-187"/>
      <point x="40" y="-133"/>
      <point x="40" y="-39" type="curve" smooth="yes"/>
      <point x="40" y="151" type="line"/>
      <point x="72" y="151" type="line"/>
      <point x="72" y="-39" type="line" smooth="yes"/>
      <point x="72" y="-105"/>
      <point x="134" y="-155"/>
      <point x="230" y="-155" type="curve" smooth="yes"/>
      <point x="369" y="-155" type="line" smooth="yes"/>
      <point x="388" y="-155"/>
      <point x="404" y="-137"/>
      <point x="404" y="-119" type="curve" smooth="yes"/>
    </contour>
  </outline>
</glyph>
<glyph name="fullstop-ar" format="2">
  <advance width="262"/>
  <unicode hex="06D4"/>
  <outline>
    <contour>
      <point x="92" y="32" type="line"/>
      <point x="194" y="32" type="line"/>
      <point x="170" y="0" type="line"/>
      <point x="68" y="0" type="line"/>
    </contour>
  </outline>
</glyph>
<glyph name="four-persian" format="2">
  <advance width="444"/>
  <unicode hex="06F4"/>
  <outline>
    <contour>
      <point x="246" y="409" type="line"/>
      <point x="214" y="409" type="line"/>
      <point x="214" y="486" type="line" smooth="yes"/>
      <point x="214" y="564"/>
      <point x="273" y="624"/>
      <point x="353" y="624" type="curve" smooth="yes"/>
      <point x="413" y="624" type="line"/>
      <point x="413" y="592" type="line"/>
      <point x="353" y="592" type="line" smooth="yes"/>
      <point x="291" y="592"/>
      <point x="246" y="546"/>
      <point x="246" y="486" type="curve" smooth="yes"/>
    </contour>
    <contour>
      <point x="30" y="624" type="line"/>
      <point x="62" y="624" type="line"/>
      <point x="62" y="0" type="line"/>
      <point x="30" y="0" type="line"/>
    </contour>
    <contour>
      <point x="414" y="409" type="line"/>
      <point x="47" y="409" type="line"/>
      <point x="47" y="441" type="line"/>
      <point x="414" y="441" type="line"/>
    </contour>
  </outline>
</glyph>
<glyph name="five-persian" format="2">
  <advance width="462"/>
  <unicode hex="06F5"/>
  <outline>
    <contour>
      <point x="296.9" y="544.655" type="curve" smooth="yes"/>
      <point x="370.976" y="499.025"/>
      <point x="431.778" y="350.681"/>
      <point x="432.798" y="220.046" type="curve" smooth="yes"/>
      <point x="433.516" y="127.876"/>
      <point x="401.88" y="-0.296"/>
      <point x="317.45" y="0.19" type="curve" smooth="yes"/>
      <point x="293.559" y="0.327"/>
      <point x="264.791" y="9.209"/>
      <point x="232" y="35" type="curve"/>
      <point x="199.11" y="8.446"/>
      <point x="171.059" y="0.142"/>
      <point x="146.383" y="0.149" type="curve" smooth="yes"/>
      <point x="67.023" y="0.17"/>
      <point x="29.537" y="117.179"/>
      <point x="30.004" y="220.1" type="curve" smooth="yes"/>
      <point x="30.598" y="350.81"/>
      <point x="92.606" y="496.014"/>
      <point x="161.769" y="541.366" type="curve" smooth="yes"/>
      <point x="204.495" y="569.477"/>
      <point x="253.793" y="570.747"/>
    </contour>
    <contour>
      <point x="280.225" y="517.345" type="curve" smooth="yes"/>
      <point x="247.315" y="537.263"/>
      <point x="212.63" y="536.523"/>
      <point x="179.356" y="514.634" type="curve" smooth="yes"/>
      <point x="121.431" y="476.649"/>
      <point x="65.009" y="339.857"/>
      <point x="63.277" y="220.1" type="curve" smooth="yes"/>
      <point x="62.107" y="139.197"/>
      <point x="88.537" y="51.282"/>
      <point x="142.627" y="36.791" type="curve" smooth="yes"/>
      <point x="166.966" y="30.271"/>
      <point x="196.906" y="41.807"/>
      <point x="232.452" y="70" type="curve"/>
      <point x="266.254" y="44.718"/>
      <point x="294.108" y="32.898"/>
      <point x="316.754" y="35.653" type="curve" smooth="yes"/>
      <point x="378.37" y="43.15"/>
      <point x="401.427" y="139.34"/>
      <point x="400.799" y="219.796" type="curve" smooth="yes"/>
      <point x="399.836" y="343.218"/>
      <point x="337.833" y="481.857"/>
    </contour>
  </outline>
</glyph>
<glyph name="uni06F5" format="2">
  <advance width="462"/>
  <unicode hex="06F5"/>
  <outline>
    <contour>
      <point x="296.900390625" y="544.6552734375" type="curve" smooth="yes"/>
      <point x="370.9755859375" y="499.025390625"/>
      <point x="431.7783203125" y="350.6806640625"/>
      <point x="432.7978515625" y="220.0458984375" type="curve" smooth="yes"/>
      <point x="433.516467875" y="127.8757438984375"/>
      <point x="401.88035120740807" y="-0.2959714220256018"/>
      <point x="317.44956752140075" y="0.18995461617173248" type="curve" smooth="yes"/>
      <point x="293.55859442803217" y="0.3274547718864297"/>
      <point x="264.79096614062496" y="9.209185542968724"/>
      <point x="232.0" y="35.0" type="curve"/>
      <point x="199.10980620605469" y="8.445703168945311"/>
      <point x="171.0586479832799" y="0.14203291793271333"/>
      <point x="146.38297419567212" y="0.14870373177252105" type="curve" smooth="yes"/>
      <point x="67.02309013768333" y="0.17015785770465686"/>
      <point x="29.536831049804654" y="117.17917929687498"/>
      <point x="30.00390625" y="220.099609375" type="curve" smooth="yes"/>
      <point x="30.59765625" y="350.8095703125"/>
      <point x="92.6064453125" y="496.013671875"/>
      <point x="161.7685546875" y="541.3662109375" type="curve" smooth="yes"/>
      <point x="204.4951171875" y="569.4765625"/>
      <point x="253.79296875" y="570.7470703125"/>
    </contour>
    <contour>
      <point x="280.224609375" y="517.3447265625" type="curve" smooth="yes"/>
      <point x="247.3154296875" y="537.2626953125"/>
      <point x="212.6298828125" y="536.5234375"/>
      <point x="179.3564453125" y="514.6337890625" type="curve" smooth="yes"/>
      <point x="121.4306640625" y="476.6494140625"/>
      <point x="65.0087890625" y="339.857421875"/>
      <point x="63.27734375" y="220.099609375" type="curve" smooth="yes"/>
      <point x="62.10747085742187" y="139.19653425976563"/>
      <point x="88.53674785143984" y="51.28216141127193"/>
      <point x="142.62668076555713" y="36.791377660802645" type="curve" smooth="yes"/>
      <point x="166.9659192389191" y="30.270854850604437"/>
      <point x="196.90587383398437" y="41.80718650585937"/>
      <point x="232.4521484375" y="70.0" type="curve"/>
      <point x="266.2538637207031" y="44.71813316406249"/>
      <point x="294.108374915422" y="32.89811652352004"/>
      <point x="316.75422794028225" y="35.653441072692964" type="curve" smooth="yes"/>
      <point x="378.3704464112462" y="43.15029620082064"/>
      <point x="401.4265276904296" y="139.34038166992187"/>
      <point x="400.798828125" y="219.7958984375" type="curve" smooth="yes"/>
      <point x="399.8359375" y="343.2177734375"/>
      <point x="337.8330078125" y="481.857421875"/>
    </contour>
  </outline>
</glyph>
<glyph name="six-persian" format="2">
  <advance width="386.97949"/>
  <unicode hex="06F6"/>
  <outline>
    <contour>
      <point x="340.327" y="336.785" type="line"/>
      <point x="58.171" y="7.439" type="line"/>
      <point x="53.835" y="9.929"/>
      <point x="46.417" y="21.109"/>
      <point x="49.552" y="36.606" type="curve" smooth="yes"/>
      <point x="53.94" y="58.303"/>
      <point x="70.437" y="76.835"/>
      <point x="84.507" y="92.961" type="curve" smooth="yes"/>
      <point x="317.76" y="360.293" type="line"/>
    </contour>
    <contour>
      <point x="329.732" y="472.725" type="curve"/>
      <point x="321.477" y="441.486" type="line"/>
      <point x="303.751" y="446.362"/>
      <point x="288.131" y="450.489"/>
      <point x="273.748" y="452.753" type="curve" smooth="yes"/>
      <point x="210.139" y="462.071"/>
      <point x="166.327" y="449.639"/>
      <point x="148.792" y="428.343" type="curve" smooth="yes"/>
      <point x="125.04" y="400.239"/>
      <point x="132.717" y="337.708"/>
      <point x="232.753" y="253.27" type="curve"/>
      <point x="211.613" y="228.509" type="line"/>
      <point x="111.456" y="313.94"/>
      <point x="81.124" y="396.862"/>
      <point x="125.145" y="448.612" type="curve" smooth="yes"/>
      <point x="154.121" y="483.403"/>
      <point x="210.209" y="494.32"/>
      <point x="278.032" y="483.505" type="curve" smooth="yes"/>
      <point x="294.401" y="481.484"/>
      <point x="312.005" y="477.601"/>
    </contour>
  </outline>
</glyph>
<glyph name="uni06F6" format="2">
  <advance width="386.9794921875"/>
  <unicode hex="06F6"/>
  <outline>
    <contour>
      <point x="340.3268784119831" y="336.7846928846444" type="line"/>
      <point x="58.170738798215154" y="7.439082081559086" type="line"/>
      <point x="53.834946161434424" y="9.929243162862463"/>
      <point x="46.417237130725255" y="21.10858092213008"/>
      <point x="49.551927737854115" y="36.606119913773014" type="curve" smooth="yes"/>
      <point x="53.940494587835275" y="58.3026745020768"/>
      <point x="70.43694817123318" y="76.83518188539085"/>
      <point x="84.50726896119365" y="92.96123696592032" type="curve" smooth="yes"/>
      <point x="317.75998558236324" y="360.2931771586346" type="line"/>
    </contour>
    <contour>
      <point x="329.7315169209561" y="472.72468450463543" type="curve"/>
      <point x="321.47704340341465" y="441.485867834534" type="line"/>
      <point x="303.7506734216762" y="446.3619120581358"/>
      <point x="288.1312650866255" y="450.4891488169065"/>
      <point x="273.7481415900263" y="452.75316261579974" type="curve" smooth="yes"/>
      <point x="210.13850135037686" y="462.07054790258303"/>
      <point x="166.32700993035343" y="449.63860438786213"/>
      <point x="148.7916044222248" y="428.3428406385741" type="curve" smooth="yes"/>
      <point x="125.03959191303778" y="400.23871457560205"/>
      <point x="132.71736054756207" y="337.70830702219877"/>
      <point x="232.7534250105339" y="253.27024802768995" type="curve"/>
      <point x="211.6134429260554" y="228.50936844985736" type="line"/>
      <point x="111.45550911967845" y="313.93997359600746"/>
      <point x="81.12382255400931" y="396.8615557690582"/>
      <point x="125.14514033943865" y="448.6121459148164" type="curve" smooth="yes"/>
      <point x="154.1212136980427" y="483.4027649480673"/>
      <point x="210.20886696797746" y="494.31950212872596"/>
      <point x="278.0324305010025" y="483.50450191228055" type="curve" smooth="yes"/>
      <point x="294.4006463008843" y="481.48422680019763"/>
      <point x="312.00514693921764" y="477.6007287282372"/>
    </contour>
  </outline>
</glyph>
<glyph name="_sad-ar.head" format="2">
  <anchor x="0" y="507" name="dotAbove"/>
  <anchor x="0" y="-200" name="dotBelow"/>
  <anchor x="0" y="545" name="markAbove"/>
  <anchor x="0" y="-220" name="markBelow"/>
  <outline>
    <contour>
      <point x="-215.778" y="28.859" type="line"/>
      <point x="-116.778" y="167.859"/>
      <point x="-2.693" y="349.783"/>
      <point x="131" y="298" type="curve" smooth="yes"/>
      <point x="188.664" y="275.665"/>
      <point x="216" y="220"/>
      <point x="218" y="135" type="curve" smooth="yes"/>
      <point x="220" y="69" type="line" smooth="yes"/>
      <point x="221" y="31"/>
      <point x="190" y="0"/>
      <point x="151" y="0" type="curve" smooth="yes"/>
      <point x="-221" y="0" type="line"/>
      <point x="-221" y="32" type="line"/>
      <point x="151" y="32" type="line" smooth="yes"/>
      <point x="174" y="32"/>
      <point x="189" y="48"/>
      <point x="188" y="67" type="curve" smooth="yes"/>
      <point x="186" y="135" type="line" smooth="yes"/>
      <point x="184" y="214"/>
      <point x="162.595" y="251.493"/>
      <point x="120" y="268" type="curve" smooth="yes"/>
      <point x="17.305" y="307.797"/>
      <point x="-88.778" y="152.859"/>
      <point x="-190.778" y="10.859" type="curve"/>
    </contour>
  </outline>
</glyph>
<glyph name="ain-ar.init" format="2">
  <advance width="508"/>
  <anchor x="253" y="462" name="dotAbove"/>
  <anchor x="254" y="-150" name="dotBelow"/>
  <anchor x="253" y="499" name="markAbove"/>
  <anchor x="254" y="-170" name="markBelow"/>
  <outline>
    <contour>
      <point x="0" y="0" type="line"/>
      <point x="0" y="32" type="line"/>
      <point x="468" y="32" type="line"/>
      <point x="468" y="0" type="line"/>
      <point x="275.863" y="0" type="line"/>
      <point x="262.578" y="0"/>
      <point x="260.429" y="8"/>
      <point x="248.49" y="8" type="curve" smooth="yes"/>
      <point x="237" y="8"/>
      <point x="235" y="0"/>
      <point x="222.05" y="0" type="curve"/>
    </contour>
    <contour>
      <point x="423" y="279" type="curve"/>
      <point x="413" y="249" type="line"/>
      <point x="282" y="288"/>
      <point x="199" y="276"/>
      <point x="168" y="244" type="curve" smooth="yes"/>
      <point x="135" y="210"/>
      <point x="146" y="134"/>
      <point x="252" y="32" type="curve"/>
      <point x="230" y="10" type="line"/>
      <point x="125" y="112"/>
      <point x="90" y="209"/>
      <point x="145" y="266" type="curve" smooth="yes"/>
      <point x="191" y="314"/>
      <point x="290" y="319"/>
    </contour>
  </outline>
</glyph>
<glyph name="ain-ar.isol" format="2">
  <advance width="426"/>
  <anchor x="213" y="484" name="dotAbove"/>
  <anchor x="236" y="-46" name="dotBelow"/>
  <anchor x="213" y="521" name="markAbove"/>
  <anchor x="236" y="-246" name="markBelow"/>
  <outline>
    <contour>
      <point x="386" y="-169" type="line"/>
      <point x="386" y="-201" type="line"/>
      <point x="98" y="-201" type="line" smooth="yes"/>
      <point x="64" y="-201"/>
      <point x="40" y="-172"/>
      <point x="40" y="-138" type="curve" smooth="yes"/>
      <point x="40" y="39" type="line" smooth="yes"/>
      <point x="40" y="70.016"/>
      <point x="58" y="103"/>
      <point x="100" y="103" type="curve" smooth="yes"/>
      <point x="386" y="103" type="line"/>
      <point x="386" y="71" type="line"/>
      <point x="100" y="71" type="line" smooth="yes"/>
      <point x="80" y="71"/>
      <point x="73" y="61"/>
      <point x="72" y="39" type="curve"/>
      <point x="72" y="-138" type="line" smooth="yes"/>
      <point x="72" y="-158"/>
      <point x="84" y="-169"/>
      <point x="98" y="-169" type="curve" smooth="yes"/>
    </contour>
    <contour>
      <point x="353" y="305" type="curve"/>
      <point x="341" y="275" type="line"/>
      <point x="324" y="282"/>
      <point x="309" y="288"/>
      <point x="295" y="292" type="curve" smooth="yes"/>
      <point x="233" y="309"/>
      <point x="188" y="302"/>
      <point x="168" y="283" type="curve" smooth="yes"/>
      <point x="141" y="258"/>
      <point x="141" y="195"/>
      <point x="230" y="99" type="curve"/>
      <point x="206" y="77" type="line"/>
      <point x="117" y="174"/>
      <point x="97" y="260"/>
      <point x="147" y="306" type="curve" smooth="yes"/>
      <point x="180" y="337"/>
      <point x="237" y="341"/>
      <point x="303" y="322" type="curve" smooth="yes"/>
      <point x="319" y="318"/>
      <point x="336" y="312"/>
    </contour>
  </outline>
</glyph>
<glyph name="alef-ar.fina.1" format="2">
  <advance width="200"/>
  <anchor x="110" y="697" name="dotAbove"/>
  <anchor x="100" y="-100" name="dotBelow"/>
  <anchor x="110" y="697" name="hamzaAbove"/>
  <anchor x="100" y="-100" name="hamzaBelow"/>
  <anchor x="110" y="697" name="kafAbove"/>
  <anchor x="110" y="735" name="markAbove"/>
  <anchor x="100" y="-120" name="markBelow"/>
  <outline>
    <contour>
      <point x="106" y="639" type="line"/>
      <point x="260.002" y="196.847" type="line"/>
      <point x="257" y="104"/>
      <point x="132" y="39"/>
      <point x="107" y="25" type="curve"/>
      <point x="129" y="25" type="line"/>
      <point x="204" y="58"/>
      <point x="276" y="122"/>
      <point x="287.779" y="177.827" type="curve" smooth="yes"/>
      <point x="289.727" y="187.062"/>
      <point x="291" y="201"/>
      <point x="289.606" y="206.206" type="curve"/>
      <point x="136" y="647" type="line"/>
    </contour>
  </outline>
</glyph>
<glyph name="alef-ar.fina.1.short" format="2">
  <advance width="200.19456"/>
  <anchor x="158" y="481" name="hamzaAbove"/>
  <anchor x="100" y="-120" name="markBelow"/>
  <outline>
    <contour>
      <point x="160" y="485" type="line"/>
      <point x="189" y="495" type="line"/>
      <point x="290" y="206" type="line"/>
      <point x="291" y="201"/>
      <point x="290" y="187"/>
      <point x="288" y="178" type="curve" smooth="yes"/>
      <point x="276" y="122"/>
      <point x="204" y="58"/>
      <point x="129" y="25" type="curve"/>
      <point x="107" y="25" type="line"/>
      <point x="132" y="39"/>
      <point x="257" y="104"/>
      <point x="260" y="197" type="curve"/>
    </contour>
  </outline>
</glyph>
<glyph name="alef-ar.fina.short" format="2">
  <advance width="196"/>
  <anchor x="56" y="481" name="hamzaAbove"/>
  <anchor x="56" y="-58" name="markBelow"/>
  <outline>
    <contour>
      <point x="72" y="481" type="line"/>
      <point x="72" y="70" type="line" smooth="yes"/>
      <point x="72" y="50"/>
      <point x="85" y="32"/>
      <point x="109" y="32" type="curve" smooth="yes"/>
      <point x="206" y="32" type="line"/>
      <point x="206" y="0" type="line"/>
      <point x="109" y="0" type="line" smooth="yes"/>
      <point x="65" y="0"/>
      <point x="40" y="36"/>
      <point x="40" y="70" type="curve" smooth="yes"/>
      <point x="40" y="481" type="line"/>
    </contour>
  </outline>
</glyph>
<glyph name="alef-ar.isol" format="2">
  <advance width="192"/>
  <anchor x="96" y="664" name="dotAbove"/>
  <anchor x="96" y="-29" name="dotBelow"/>
  <anchor x="96" y="664" name="hamzaAbove"/>
  <anchor x="96" y="-29" name="hamzaBelow"/>
  <anchor x="96" y="664" name="kafAbove"/>
  <anchor x="96" y="702" name="markAbove"/>
  <anchor x="96" y="-58" name="markBelow"/>
  <outline>
    <contour>
      <point x="80" y="624" type="line"/>
      <point x="112" y="624" type="line"/>
      <point x="112" y="33" type="line" smooth="yes"/>
      <point x="112" y="19"/>
      <point x="101" y="1"/>
      <point x="80" y="1" type="curve"/>
    </contour>
  </outline>
</glyph>
<glyph name="alef-ar.short" format="2">
  <advance width="192"/>
  <anchor x="96" y="481" name="hamzaAbove"/>
  <anchor x="96" y="-58" name="markBelow"/>
  <outline>
    <contour>
      <point x="80" y="481" type="line"/>
      <point x="112" y="481" type="line"/>
      <point x="112" y="33" type="line" smooth="yes"/>
      <point x="112" y="19"/>
      <point x="101" y="1"/>
      <point x="80" y="1" type="curve"/>
    </contour>
  </outline>
</glyph>
<glyph name="alefMaksura-ar.isol" format="2">
  <advance width="544"/>
  <anchor x="207" y="342" name="dotAbove"/>
  <anchor x="279" y="-184" name="dotBelow"/>
  <anchor x="207" y="342" name="hamzaAbove"/>
  <anchor x="279" y="-184" name="hamzaBelow"/>
  <anchor x="207" y="342" name="kafAbove"/>
  <anchor x="207" y="379" name="markAbove"/>
  <anchor x="279" y="-204" name="markBelow"/>
  <anchor x="279" y="-94" name="ringBelow"/>
  <anchor x="43" y="174" name="tailAbove"/>
  <outline>
    <contour>
      <point x="504" y="212" type="line"/>
      <point x="504" y="180" type="line"/>
      <point x="396" y="180" type="line" smooth="yes"/>
      <point x="366.128" y="182.766"/>
      <point x="345.828" y="160.655"/>
      <point x="371" y="128" type="curve" smooth="yes"/>
      <point x="482" y="-6" type="line" smooth="yes"/>
      <point x="513.284" y="-43.766"/>
      <point x="480.949" y="-91.654"/>
      <point x="427" y="-94" type="curve" smooth="yes"/>
      <point x="197" y="-94" type="line" smooth="yes"/>
      <point x="129" y="-94"/>
      <point x="40" y="-56"/>
      <point x="40" y="47" type="curve" smooth="yes"/>
      <point x="40" y="209" type="line"/>
      <point x="72" y="209" type="line"/>
      <point x="72" y="47" type="line" smooth="yes"/>
      <point x="72" y="-32"/>
      <point x="137.057" y="-59.394"/>
      <point x="197" y="-62" type="curve" smooth="yes"/>
      <point x="427" y="-62" type="line" smooth="yes"/>
      <point x="459" y="-62"/>
      <point x="470.812" y="-40.313"/>
      <point x="458" y="-26" type="curve" smooth="yes"/>
      <point x="347" y="108" type="line" smooth="yes"/>
      <point x="303.956" y="159.963"/>
      <point x="341" y="212"/>
      <point x="396" y="212" type="curve" smooth="yes"/>
    </contour>
  </outline>
</glyph>
<glyph name="arAin.init" format="2">
  <advance width="508"/>
  <anchor x="254.0" y="-150.0" name="dotBelow"/>
  <anchor x="254.0" y="-170.0" name="markBelow"/>
  <anchor x="253.0" y="462.0" name="dotAbove"/>
  <anchor x="253.0" y="499.0" name="markAbove"/>
  <outline>
    <contour>
      <point x="0.0" y="0.0" type="line"/>
      <point x="0.0" y="32.0" type="line"/>
      <point x="468.0" y="32.0" type="line"/>
      <point x="468.0" y="0.0" type="line"/>
      <point x="275.8627776879176" y="0.0" type="line"/>
      <point x="262.5780731734899" y="0.0"/>
      <point x="260.42924425238726" y="8.0"/>
      <point x="248.4899053435975" y="8.0" type="curve" smooth="yes"/>
      <point x="237.0" y="8.0"/>
      <point x="235.0" y="0.0"/>
      <point x="222.05035742101012" y="0.0" type="curve"/>
    </contour>
    <contour>
      <point x="423.0" y="279.0" type="curve"/>
      <point x="413.0" y="249.0" type="line"/>
      <point x="282.0" y="288.0"/>
      <point x="199.0" y="276.0"/>
      <point x="168.0" y="244.0" type="curve" smooth="yes"/>
      <point x="135.0" y="210.0"/>
      <point x="146.0" y="134.0"/>
      <point x="252.0" y="32.0" type="curve"/>
      <point x="230.0" y="10.0" type="line"/>
      <point x="125.0" y="112.0"/>
      <point x="90.0" y="209.0"/>
      <point x="145.0" y="266.0" type="curve" smooth="yes"/>
      <point x="191.0" y="314.0"/>
      <point x="290.0" y="319.0"/>
    </contour>
  </outline>
</glyph>
<glyph name="arAin.isol" format="2">
  <advance width="426"/>
  <anchor x="236.0" y="-46.0" name="dotBelow"/>
  <anchor x="236.0" y="-246.0" name="markBelow"/>
  <anchor x="213.0" y="484.0" name="dotAbove"/>
  <anchor x="213.0" y="521.0" name="markAbove"/>
  <outline>
    <contour>
      <point x="386.0" y="-169.0" type="line"/>
      <point x="386.0" y="-201.0" type="line"/>
      <point x="98.0" y="-201.0" type="line" smooth="yes"/>
      <point x="64.0" y="-201.0"/>
      <point x="40.0" y="-172.0"/>
      <point x="40.0" y="-138.0" type="curve" smooth="yes"/>
      <point x="40.0" y="39.0" type="line" smooth="yes"/>
      <point x="40.0" y="70.01612483854166"/>
      <point x="58.0" y="103.0"/>
      <point x="100.0" y="103.0" type="curve" smooth="yes"/>
      <point x="386.0" y="103.0" type="line"/>
      <point x="386.0" y="71.0" type="line"/>
      <point x="100.0" y="71.0" type="line" smooth="yes"/>
      <point x="80.0" y="71.0"/>
      <point x="73.0" y="61.0"/>
      <point x="72.0" y="39.0" type="curve"/>
      <point x="72.0" y="-138.0" type="line" smooth="yes"/>
      <point x="72.0" y="-158.0"/>
      <point x="84.0" y="-169.0"/>
      <point x="98.0" y="-169.0" type="curve" smooth="yes"/>
    </contour>
    <contour>
      <point x="353.0" y="305.0" type="curve"/>
      <point x="341.0" y="275.0" type="line"/>
      <point x="324.0" y="282.0"/>
      <point x="309.0" y="288.0"/>
      <point x="295.0" y="292.0" type="curve" smooth="yes"/>
      <point x="233.0" y="309.0"/>
      <point x="188.0" y="302.0"/>
      <point x="168.0" y="283.0" type="curve" smooth="yes"/>
      <point x="141.0" y="258.0"/>
      <point x="141.0" y="195.0"/>
      <point x="230.0" y="99.0" type="curve"/>
      <point x="206.0" y="77.0" type="line"/>
      <point x="117.0" y="174.0"/>
      <point x="97.0" y="260.0"/>
      <point x="147.0" y="306.0" type="curve" smooth="yes"/>
      <point x="180.0" y="337.0"/>
      <point x="237.0" y="341.0"/>
      <point x="303.0" y="322.0" type="curve" smooth="yes"/>
      <point x="319.0" y="318.0"/>
      <point x="336.0" y="312.0"/>
    </contour>
  </outline>
</glyph>
<glyph name="arAlef.fina.1" format="2">
  <advance width="200"/>
  <anchor x="110.0" y="697.0" name="dotAbove"/>
  <anchor x="110.0" y="735.0" name="markAbove"/>
  <anchor x="110.0" y="697.0" name="hamzaAbove"/>
  <anchor x="100.0" y="-100.0" name="dotBelow"/>
  <anchor x="100.0" y="-120.0" name="markBelow"/>
  <anchor x="100.0" y="-100.0" name="hamzaBelow"/>
  <anchor x="110.0" y="697.0" name="kafAbove"/>
  <outline>
    <contour>
      <point x="106" y="639" type="line"/>
      <point x="260.0022277832031" y="196.84732818603516" type="line"/>
      <point x="257.0" y="104.0"/>
      <point x="132.0" y="39.0"/>
      <point x="107.0" y="25.0" type="curve"/>
      <point x="129" y="25" type="line"/>
      <point x="204.0" y="58.0"/>
      <point x="276.0" y="122.0"/>
      <point x="287.77912700060557" y="177.82741625968978" type="curve" smooth="yes"/>
      <point x="289.72749032237414" y="187.06172455637738"/>
      <point x="291.0" y="201.0"/>
      <point x="289.60574778002854" y="206.20625379211597" type="curve"/>
      <point x="136" y="647" type="line"/>
    </contour>
  </outline>
</glyph>
<glyph name="arAlef.fina.1.short" format="2">
  <advance width="200.19455993368507"/>
  <anchor x="100.0" y="-120.0" name="markBelow"/>
  <anchor x="158" y="481" name="hamzaAbove"/>
  <outline>
    <contour>
      <point x="160.0" y="485.0" type="line"/>
      <point x="189.0" y="495.0" type="line"/>
      <point x="290.0" y="206.0" type="line"/>
      <point x="291.0" y="201.0"/>
      <point x="290.0" y="187.0"/>
      <point x="288.0" y="178.0" type="curve" smooth="yes"/>
      <point x="276.0" y="122.0"/>
      <point x="204.0" y="58.0"/>
      <point x="129.0" y="25.0" type="curve"/>
      <point x="107.0" y="25.0" type="line"/>
      <point x="132.0" y="39.0"/>
      <point x="257.0" y="104.0"/>
      <point x="260.0" y="197.0" type="curve"/>
    </contour>
  </outline>
</glyph>
<glyph name="arAlef.fina.short" format="2">
  <advance width="196.0"/>
  <anchor x="56.0" y="-58.0" name="markBelow"/>
  <anchor x="56" y="481" name="hamzaAbove"/>
  <outline>
    <contour>
      <point x="72.0" y="481.0" type="line"/>
      <point x="72.0" y="70.0" type="line" smooth="yes"/>
      <point x="72.0" y="50.0"/>
      <point x="85.0" y="32.0"/>
      <point x="109.0" y="32.0" type="curve" smooth="yes"/>
      <point x="206.0" y="32.0" type="line"/>
      <point x="206.0" y="0.0" type="line"/>
      <point x="109.0" y="0.0" type="line" smooth="yes"/>
      <point x="65.0" y="0.0"/>
      <point x="40.0" y="36.0"/>
      <point x="40.0" y="70.0" type="curve" smooth="yes"/>
      <point x="40.0" y="481.0" type="line"/>
    </contour>
  </outline>
</glyph>
<glyph name="arAlef.isol" format="2">
  <advance width="192"/>
  <anchor x="96.0" y="664.0" name="hamzaAbove"/>
  <anchor x="96.0" y="664.0" name="dotAbove"/>
  <anchor x="96.0" y="702.0" name="markAbove"/>
  <anchor x="96.0" y="-29.0" name="hamzaBelow"/>
  <anchor x="96.0" y="-29.0" name="dotBelow"/>
  <anchor x="96.0" y="-58.0" name="markBelow"/>
  <anchor x="96.0" y="664.0" name="kafAbove"/>
  <outline>
    <contour>
      <point x="80.0" y="624.0" type="line"/>
      <point x="112.0" y="624.0" type="line"/>
      <point x="112.0" y="33.0" type="line" smooth="yes"/>
      <point x="112.0" y="19.0"/>
      <point x="101.0" y="1.0"/>
      <point x="80.0" y="1.0" type="curve"/>
    </contour>
  </outline>
</glyph>
<glyph name="arAlef.isol.short" format="2">
  <advance width="192.0"/>
  <anchor x="96.0" y="-58.0" name="markBelow"/>
  <anchor x="96" y="481" name="hamzaAbove"/>
  <outline>
    <contour>
      <point x="80.0" y="481.0" type="line"/>
      <point x="112.0" y="481.0" type="line"/>
      <point x="112.0" y="33.0" type="line" smooth="yes"/>
      <point x="112.0" y="19.0"/>
      <point x="101.0" y="1.0"/>
      <point x="80.0" y="1.0" type="curve"/>
    </contour>
  </outline>
</glyph>
<glyph name="arBeh.isol" format="2">
  <advance width="674"/>
  <anchor x="357.0" y="-150.0" name="dotBelow"/>
  <anchor x="357.0" y="-170.0" name="markBelow"/>
  <anchor x="337.0" y="393.0" name="dotAbove"/>
  <anchor x="337.0" y="430.0" name="markAbove"/>
  <anchor x="357.0" y="0" name="ringBelow"/>
  <anchor x="357.0" y="-150.0" name="hamzaBelow"/>
  <anchor x="337.0" y="393.0" name="hamzaAbove"/>
  <outline>
    <contour>
      <point x="602.0" y="263.0" type="line"/>
      <point x="634.0" y="263.0" type="line"/>
      <point x="634.0" y="68.0" type="line" smooth="yes"/>
      <point x="634.0" y="32.0"/>
      <point x="600.0" y="0.0"/>
      <point x="566.0" y="0.0" type="curve" smooth="yes"/>
      <point x="174.0" y="0.0" type="line" smooth="yes"/>
      <point x="104.0" y="0.0"/>
      <point x="40.0" y="53.0"/>
      <point x="40.0" y="123.0" type="curve" smooth="yes"/>
      <point x="40.0" y="263.0" type="line"/>
      <point x="72.0" y="263.0" type="line"/>
      <point x="72.0" y="123.0" type="line" smooth="yes"/>
      <point x="72.0" y="73.0"/>
      <point x="118.0" y="32.0"/>
      <point x="174.0" y="32.0" type="curve" smooth="yes"/>
      <point x="566.0" y="32.0" type="line" smooth="yes"/>
      <point x="582.0" y="32.0"/>
      <point x="602.0" y="52.0"/>
      <point x="602.0" y="68.0" type="curve" smooth="yes"/>
    </contour>
  </outline>
</glyph>
<glyph name="arFeh.init" format="2">
  <advance width="463"/>
  <anchor x="274.0" y="590.0" name="dotAbove"/>
  <anchor x="274.0" y="628.0" name="markAbove"/>
  <anchor x="231.0" y="-150.0" name="dotBelow"/>
  <anchor x="231.0" y="-170.0" name="markBelow"/>
  <outline>
    <contour>
      <point x="0.0" y="32.0" type="line"/>
      <point x="352.0" y="32.0" type="line" smooth="yes"/>
      <point x="377.0" y="32.0"/>
      <point x="391.0" y="51.0"/>
      <point x="391.0" y="70.0" type="curve" smooth="yes"/>
      <point x="391.0" y="295.0" type="line" smooth="yes"/>
      <point x="391.0" y="321.0"/>
      <point x="385.0" y="341.0"/>
      <point x="375.0" y="357.0" type="curve" smooth="yes"/>
      <point x="340.0" y="413.0"/>
      <point x="252.0" y="421.0"/>
      <point x="202.0" y="389.0" type="curve" smooth="yes"/>
      <point x="159.0" y="361.0"/>
      <point x="128.0" y="286.0"/>
      <point x="163.0" y="229.0" type="curve" smooth="yes"/>
      <point x="207.0" y="156.0"/>
      <point x="290.0" y="166.0"/>
      <point x="405.0" y="178.0" type="curve"/>
      <point x="405.0" y="146.0" type="line"/>
      <point x="312.0" y="134.0"/>
      <point x="192.0" y="119.0"/>
      <point x="135.0" y="213.0" type="curve" smooth="yes"/>
      <point x="90.0" y="288.0"/>
      <point x="129.0" y="379.0"/>
      <point x="184.0" y="415.0" type="curve" smooth="yes"/>
      <point x="246.0" y="455.0"/>
      <point x="355.0" y="448.0"/>
      <point x="402.0" y="374.0" type="curve" smooth="yes"/>
      <point x="415.0" y="353.0"/>
      <point x="423.0" y="326.0"/>
      <point x="423.0" y="295.0" type="curve" smooth="yes"/>
      <point x="423.0" y="70.0" type="line" smooth="yes"/>
      <point x="423.0" y="35.0"/>
      <point x="395.0" y="0.0"/>
      <point x="352.0" y="0.0" type="curve" smooth="yes"/>
      <point x="0.0" y="0.0" type="line"/>
    </contour>
  </outline>
</glyph>
<glyph name="arFeh.isol" format="2">
  <advance width="758"/>
  <anchor x="569.0" y="549.0" name="dotAbove"/>
  <anchor x="569.0" y="587.0" name="markAbove"/>
  <anchor x="379.0" y="-100.0" name="dotBelow"/>
  <anchor x="379.0" y="-120.0" name="markBelow"/>
  <outline>
    <contour>
      <point x="700.0" y="105.0" type="line"/>
      <point x="607.0" y="93.0"/>
      <point x="487.0" y="78.0"/>
      <point x="430.0" y="172.0" type="curve" smooth="yes"/>
      <point x="385.0" y="247.0"/>
      <point x="424.0" y="338.0"/>
      <point x="479.0" y="374.0" type="curve" smooth="yes"/>
      <point x="541.0" y="414.0"/>
      <point x="650.0" y="407.0"/>
      <point x="697.0" y="333.0" type="curve" smooth="yes"/>
      <point x="710.0" y="312.0"/>
      <point x="718.0" y="285.0"/>
      <point x="718.0" y="254.0" type="curve" smooth="yes"/>
      <point x="718.0" y="70.0" type="line" smooth="yes"/>
      <point x="718.0" y="35.0"/>
      <point x="690.0" y="0.0"/>
      <point x="647.0" y="0.0" type="curve" smooth="yes"/>
      <point x="155.0" y="0.0" type="line" smooth="yes"/>
      <point x="91.0" y="0.0"/>
      <point x="40.0" y="43.0"/>
      <point x="40.0" y="110.0" type="curve" smooth="yes"/>
      <point x="40.0" y="262.0" type="line"/>
      <point x="72.0" y="262.0" type="line"/>
      <point x="72.0" y="110.0" type="line" smooth="yes"/>
      <point x="72.0" y="61.0"/>
      <point x="105.0" y="32.0"/>
      <point x="155.0" y="32.0" type="curve" smooth="yes"/>
      <point x="647.0" y="32.0" type="line" smooth="yes"/>
      <point x="672.0" y="32.0"/>
      <point x="686.0" y="51.0"/>
      <point x="686.0" y="70.0" type="curve" smooth="yes"/>
      <point x="686.0" y="254.0" type="line" smooth="yes"/>
      <point x="686.0" y="280.0"/>
      <point x="680.0" y="300.0"/>
      <point x="670.0" y="316.0" type="curve" smooth="yes"/>
      <point x="635.0" y="372.0"/>
      <point x="547.0" y="380.0"/>
      <point x="497.0" y="348.0" type="curve" smooth="yes"/>
      <point x="454.0" y="320.0"/>
      <point x="423.0" y="245.0"/>
      <point x="458.0" y="188.0" type="curve" smooth="yes"/>
      <point x="502.0" y="115.0"/>
      <point x="585.0" y="125.0"/>
      <point x="700.0" y="137.0" type="curve"/>
    </contour>
  </outline>
</glyph>
<glyph name="arHah.isol" format="2">
  <advance width="476"/>
  <anchor x="248.0" y="-40.0" name="dotBelow"/>
  <anchor x="248.0" y="-240.0" name="markBelow"/>
  <anchor x="158.0" y="447.0" name="dotAbove"/>
  <anchor x="158.0" y="484.0" name="markAbove"/>
  <anchor x="158.0" y="447.0" name="hamzaAbove"/>
  <outline>
    <contour>
      <point x="381.0" y="-168.0" type="line"/>
      <point x="381.0" y="-200.0" type="line"/>
      <point x="140.0" y="-200.0" type="line" smooth="yes"/>
      <point x="82.99122874504309" y="-200.0"/>
      <point x="40.0" y="-159.0"/>
      <point x="40.0" y="-104.0" type="curve" smooth="yes"/>
      <point x="40.0" y="11.0" type="line" smooth="yes"/>
      <point x="40.0" y="65.0"/>
      <point x="87.0" y="123.0"/>
      <point x="148.0" y="123.0" type="curve" smooth="yes"/>
      <point x="401.0" y="123.0" type="line"/>
      <point x="359.0" y="132.0"/>
      <point x="328.0" y="162.0"/>
      <point x="301.0" y="191.0" type="curve" smooth="yes"/>
      <point x="260.0" y="236.0"/>
      <point x="219.0" y="309.0"/>
      <point x="113.0" y="349.0" type="curve"/>
      <point x="125.0" y="379.0" type="line"/>
      <point x="241.0" y="335.0"/>
      <point x="288.0" y="254.0"/>
      <point x="325.0" y="213.0" type="curve" smooth="yes"/>
      <point x="362.0" y="173.0"/>
      <point x="387.0" y="153.0"/>
      <point x="436.0" y="153.0" type="curve"/>
      <point x="436.0" y="137.0" type="line" smooth="yes"/>
      <point x="436.0" y="124.0"/>
      <point x="424.0" y="91.0"/>
      <point x="393.0" y="91.0" type="curve" smooth="yes"/>
      <point x="148.0" y="91.0" type="line" smooth="yes"/>
      <point x="107.0" y="91.0"/>
      <point x="72.0" y="49.0"/>
      <point x="72.0" y="11.0" type="curve" smooth="yes"/>
      <point x="72.0" y="-104.0" type="line" smooth="yes"/>
      <point x="72.0" y="-141.0"/>
      <point x="99.0" y="-169.0"/>
      <point x="140.0" y="-168.0" type="curve" smooth="yes"/>
    </contour>
  </outline>
</glyph>
<glyph name="arHah.isol2" format="2">
  <advance width="476"/>
  <anchor x="248.0" y="-20.0" name="dotBelow"/>
  <anchor x="248.0" y="-60.0" name="markBelow"/>
  <anchor x="158.0" y="447.0" name="dotAbove"/>
  <anchor x="158.0" y="484.0" name="markAbove"/>
  <anchor x="158.0" y="447.0" name="hamzaAbove"/>
  <outline>
    <contour>
      <point x="40.0" y="-168.0" type="curve" smooth="yes"/>
      <point x="40.0" y="11.0" type="line" smooth="yes"/>
      <point x="40.0" y="65.0"/>
      <point x="87.0" y="123.0"/>
      <point x="148.0" y="123.0" type="curve" smooth="yes"/>
      <point x="401.0" y="123.0" type="line"/>
      <point x="359.0" y="132.0"/>
      <point x="328.0" y="162.0"/>
      <point x="301.0" y="191.0" type="curve" smooth="yes"/>
      <point x="260.0" y="236.0"/>
      <point x="219.0" y="309.0"/>
      <point x="113.0" y="349.0" type="curve"/>
      <point x="125.0" y="379.0" type="line"/>
      <point x="241.0" y="335.0"/>
      <point x="288.0" y="254.0"/>
      <point x="325.0" y="213.0" type="curve" smooth="yes"/>
      <point x="362.0" y="173.0"/>
      <point x="387.0" y="153.0"/>
      <point x="436.0" y="153.0" type="curve"/>
      <point x="436.0" y="137.0" type="line" smooth="yes"/>
      <point x="436.0" y="124.0"/>
      <point x="424.0" y="91.0"/>
      <point x="393.0" y="91.0" type="curve" smooth="yes"/>
      <point x="148.0" y="91.0" type="line" smooth="yes"/>
      <point x="107.0" y="91.0"/>
      <point x="71.99758407404389" y="48.99999992322077"/>
      <point x="72.0" y="11.0" type="curve" smooth="yes"/>
      <point x="72.01341759447814" y="-200.04479112341812" type="line"/>
      <point x="52.15247245687783" y="-199.8312709897849"/>
      <point x="40.0" y="-183.45455757664092"/>
    </contour>
  </outline>
</glyph>
<glyph name="arHeh.fina2" format="2">
  <advance width="218"/>
  <anchor x="139.0" y="-120.0" name="dotBelow"/>
  <anchor x="139.0" y="-140.0" name="markBelow"/>
  <anchor x="109.0" y="180.0" name="dotAbove"/>
  <anchor x="109.0" y="180.0" name="hamzaAbove"/>
  <anchor x="109.0" y="217.0" name="markAbove"/>
  <anchor x="109.0" y="180.0" name="kafAbove"/>
  <outline>
    <contour>
      <point x="72.0" y="-58.0" type="line"/>
      <point x="40.0" y="-58.0" type="line"/>
      <point x="40.0" y="-5.0" type="line" smooth="yes"/>
      <point x="40.0" y="33.0"/>
      <point x="70.0" y="62.0"/>
      <point x="109.0" y="62.0" type="curve" smooth="yes"/>
      <point x="218.0" y="62.0" type="line"/>
      <point x="218.0" y="30.0" type="line"/>
      <point x="109.0" y="30.0" type="line" smooth="yes"/>
      <point x="86.0" y="30.0"/>
      <point x="72.0" y="15.0"/>
      <point x="72.0" y="-5.0" type="curve" smooth="yes"/>
    </contour>
  </outline>
</glyph>
<glyph name="arHeh.medi2" format="2">
  <advance width="526"/>
  <anchor x="321.0" y="-402.0" name="dotBelow"/>
  <anchor x="321.0" y="-422.0" name="markBelow"/>
  <anchor x="263.0" y="232.0" name="dotAbove"/>
  <anchor x="263.0" y="269.0" name="markAbove"/>
  <anchor x="336.0" y="232.0" name="hamzaAbove"/>
  <anchor x="336.0" y="232.0" name="kafAbove"/>
  <outline>
    <contour>
      <point x="319.0" y="-296.0" type="curve"/>
      <point x="287.0" y="-302.0" type="line"/>
      <point x="268.0" y="-202.0"/>
      <point x="233.0" y="-201.0"/>
      <point x="193.0" y="-137.0" type="curve" smooth="yes"/>
      <point x="149.0" y="-66.0"/>
      <point x="172.0" y="0.0"/>
      <point x="140.0" y="0.0" type="curve" smooth="yes"/>
      <point x="0.0" y="0.0" type="line"/>
      <point x="0.0" y="32.0" type="line"/>
      <point x="140.0" y="32.0" type="line" smooth="yes"/>
      <point x="208.0" y="32.0"/>
      <point x="197.0" y="-82.0"/>
      <point x="221.0" y="-121.0" type="curve" smooth="yes"/>
      <point x="253.0" y="-173.0"/>
      <point x="298.0" y="-188.0"/>
    </contour>
    <contour>
      <point x="350.0" y="-286.0" type="line"/>
      <point x="318.0" y="-286.0" type="line"/>
      <point x="318.0" y="-36.0" type="line" smooth="yes"/>
      <point x="318.0" y="1.0"/>
      <point x="349.0" y="32.0"/>
      <point x="386.0" y="32.0" type="curve" smooth="yes"/>
      <point x="536.0" y="32.0" type="line"/>
      <point x="536.0" y="0.0" type="line"/>
      <point x="386.0" y="0.0" type="line" smooth="yes"/>
      <point x="367.0" y="0.0"/>
      <point x="350.0" y="-17.0"/>
      <point x="350.0" y="-36.0" type="curve" smooth="yes"/>
    </contour>
  </outline>
</glyph>
<glyph name="arKaf.init" format="2">
  <advance width="478"/>
  <anchor x="257.0" y="597.0" name="gafAbove"/>
  <anchor x="129.0" y="-150.0" name="dotBelow"/>
  <anchor x="129.0" y="-179.0" name="markBelow"/>
  <anchor x="69.0" y="619.0" name="dotAbove"/>
  <anchor x="209.0" y="657.0" name="markAbove"/>
  <anchor x="287.0" y="532.0" name="ringBelow"/>
  <outline>
    <contour>
      <point x="0.0" y="0.0" type="line"/>
      <point x="0.0" y="32.0" type="line"/>
      <point x="342.0" y="32.0" type="line" smooth="yes"/>
      <point x="372.0" y="32.0"/>
      <point x="384.79753041602925" y="67.79966536076881"/>
      <point x="366.0" y="87.0" type="curve" smooth="yes"/>
      <point x="108.7075082671061" y="349.8059022700273" type="line" smooth="yes"/>
      <point x="106.6595445564979" y="351.8977509172818"/>
      <point x="104.47554361461627" y="352.69701229024565"/>
      <point x="101.54858465451632" y="352.7508395030291" type="curve" smooth="yes"/>
      <point x="91.90023946431901" y="352.928274013263" type="line" smooth="yes"/>
      <point x="89.05248864939813" y="352.980644576417"/>
      <point x="87.02852207908069" y="353.992295304939"/>
      <point x="85.035979510057" y="356.0275352147275" type="curve" smooth="yes"/>
      <point x="51.89622712177573" y="389.87742515418637" type="line" smooth="yes"/>
      <point x="24.685560188768818" y="417.6711778071864"/>
      <point x="28.382960997700252" y="455.2709125321012"/>
      <point x="86.0" y="486.0" type="curve" smooth="yes"/>
      <point x="191.0" y="542.0"/>
      <point x="326.0" y="581.0"/>
      <point x="438.0" y="599.0" type="curve"/>
      <point x="438.0" y="567.0" type="line"/>
      <point x="334.0" y="556.0"/>
      <point x="127.0" y="484.0"/>
      <point x="82.0" y="443.0" type="curve" smooth="yes"/>
      <point x="77.90433100539678" y="439.2683904715824"/>
      <point x="70.40705136206907" y="433.39851182300475"/>
      <point x="82.27850882667538" y="421.2726659841578" type="curve" smooth="yes"/>
      <point x="388.0" y="109.0" type="line" smooth="yes"/>
      <point x="424.0" y="72.0"/>
      <point x="402.0" y="0.0"/>
      <point x="342.0" y="0.0" type="curve" smooth="yes"/>
    </contour>
  </outline>
</glyph>
<glyph name="arKaf.isol" format="2">
  <advance width="496"/>
  <anchor x="440.0" y="673.0" name="dotAbove"/>
  <anchor x="440.0" y="711.0" name="markAbove"/>
  <anchor x="239.0" y="-110.0" name="dotBelow"/>
  <anchor x="239.0" y="-130.0" name="markBelow"/>
  <anchor x="230.0" y="270.0" name="hamzaAbove"/>
  <anchor x="230.0" y="270.0" name="kafAbove"/>
  <outline>
    <contour>
      <point x="82.0" y="32.0" type="line"/>
      <point x="106.0" y="0.0" type="line"/>
      <point x="64.0" y="0.0" type="line"/>
      <point x="40.0" y="32.0" type="line"/>
    </contour>
    <contour>
      <point x="424.0" y="624.0" type="line"/>
      <point x="456.0" y="624.0" type="line"/>
      <point x="456.0" y="70.0" type="line" smooth="yes"/>
      <point x="456.0" y="35.0"/>
      <point x="430.0" y="0.0"/>
      <point x="386.0" y="0.0" type="curve" smooth="yes"/>
      <point x="64.0" y="0.0" type="line"/>
      <point x="64.0" y="32.0" type="line"/>
      <point x="386.0" y="32.0" type="line" smooth="yes"/>
      <point x="410.0" y="32.0"/>
      <point x="424.0" y="51.0"/>
      <point x="424.0" y="70.0" type="curve" smooth="yes"/>
    </contour>
  </outline>
</glyph>
<glyph name="arLam.init.1" format="2">
  <advance width="162.0"/>
  <anchor x="105.0" y="723.0" name="dotAbove"/>
  <anchor x="105.0" y="761.0" name="markAbove"/>
  <anchor x="105.0" y="-100.0" name="dotBelow"/>
  <anchor x="105.0" y="-120.0" name="markBelow"/>
  <anchor x="107.0" y="560.0" name="dash"/>
  <outline>
    <contour>
      <point x="90.0" y="624.0" type="line"/>
      <point x="122.0" y="624.0" type="line"/>
      <point x="122.0" y="70.0" type="line" smooth="yes"/>
      <point x="122.0" y="30.0"/>
      <point x="92.0" y="0.0"/>
      <point x="55.0" y="0.0" type="curve" smooth="yes"/>
      <point x="-160.0" y="0.0" type="line"/>
      <point x="-160.0" y="32.0" type="line"/>
      <point x="55.0" y="32.0" type="line" smooth="yes"/>
      <point x="74.0" y="32.0"/>
      <point x="90.0" y="46.0"/>
      <point x="90.0" y="70.0" type="curve" smooth="yes"/>
    </contour>
  </outline>
</glyph>
<glyph name="arMeem.fina" format="2">
  <advance width="408.0"/>
  <outline>
    <contour>
      <point x="418.0" y="32.0" type="line"/>
      <point x="418.0" y="0.0" type="line"/>
      <point x="351.0" y="0.0" type="line"/>
      <point x="351.0" y="32.0" type="line"/>
    </contour>
    <component base="arMeem.isol"/>
  </outline>
</glyph>
<glyph name="arMeem.isol" format="2">
  <advance width="448.0"/>
  <anchor x="240.0" y="449.0" name="dotAbove"/>
  <anchor x="240.0" y="487.0" name="markAbove"/>
  <anchor x="162.0" y="-109.0" name="dotBelow"/>
  <anchor x="162.0" y="-129.0" name="markBelow"/>
  <outline>
    <contour>
      <point x="109.0" y="62.71559143066406" type="line"/>
      <point x="141.0" y="62.71559143066406" type="line"/>
      <point x="141.0" y="201" type="line" smooth="yes"/>
      <point x="141.0" y="228.0"/>
      <point x="151.0" y="248.0"/>
      <point x="165.0" y="262.0" type="curve" smooth="yes"/>
      <point x="199.0" y="295.0"/>
      <point x="266.0" y="296.0"/>
      <point x="307.0" y="253.0" type="curve" smooth="yes"/>
      <point x="357.0" y="200.0"/>
      <point x="376.0" y="157.0"/>
      <point x="376.0" y="125.0" type="curve" smooth="yes"/>
      <point x="376.0" y="69.0"/>
      <point x="317.0" y="32.0"/>
      <point x="237.0" y="32.0" type="curve" smooth="yes"/>
      <point x="109.0" y="32" type="line" smooth="yes"/>
      <point x="65.0" y="32.0"/>
      <point x="40.0" y="-4.0"/>
      <point x="40.0" y="-38.0" type="curve" smooth="yes"/>
      <point x="40.0" y="-200" type="line"/>
      <point x="72.0" y="-200" type="line"/>
      <point x="72.0" y="-38" type="line" smooth="yes"/>
      <point x="72.0" y="-18.0"/>
      <point x="85.0" y="0.0"/>
      <point x="109.0" y="0.0" type="curve" smooth="yes"/>
      <point x="237.0" y="0" type="line" smooth="yes"/>
      <point x="322.0" y="0.0"/>
      <point x="408.0" y="41.0"/>
      <point x="408.0" y="125.0" type="curve" smooth="yes"/>
      <point x="408.0" y="169.0"/>
      <point x="384.0" y="219.0"/>
      <point x="331.0" y="275.0" type="curve" smooth="yes"/>
      <point x="278.0" y="330.0"/>
      <point x="190.0" y="332.0"/>
      <point x="142.0" y="285.0" type="curve" smooth="yes"/>
      <point x="121.0" y="265.0"/>
      <point x="109.0" y="236.0"/>
      <point x="109.0" y="201.0" type="curve" smooth="yes"/>
    </contour>
  </outline>
</glyph>
<glyph name="arMeem.medi" format="2">
  <advance width="435"/>
  <outline>
    <contour>
      <point x="445.0" y="32.0" type="line"/>
      <point x="445.0" y="0.0" type="line"/>
      <point x="378.0" y="0.0" type="line"/>
      <point x="378.0" y="32.0" type="line"/>
    </contour>
    <component base="arMeem.init"/>
  </outline>
</glyph>
<glyph name="arNoon.fina" format="2">
  <advance width="574"/>
  <outline>
    <contour>
      <point x="584.0" y="32.0" type="line"/>
      <point x="584.0" y="0.0" type="line"/>
      <point x="432.0" y="0.0" type="line"/>
      <point x="432.0" y="32.0" type="line"/>
    </contour>
    <component base="arNoon.isol"/>
  </outline>
</glyph>
<glyph name="arQaf.fina" format="2">
  <advance width="760"/>
  <anchor x="499.0" y="450.0" name="dotAbove"/>
  <anchor x="499.0" y="488.0" name="markAbove"/>
  <anchor x="374.0" y="-299.0" name="dotBelow"/>
  <anchor x="374.0" y="-319.0" name="markBelow"/>
  <outline>
    <contour>
      <point x="770.0" y="32.0" type="line"/>
      <point x="770.0" y="0.0" type="line"/>
      <point x="628.0" y="0.0" type="line" smooth="yes"/>
      <point x="469" y="0.0"/>
      <point x="406.0" y="-4.0"/>
      <point x="360.0" y="73.0" type="curve" smooth="yes"/>
      <point x="315.0" y="148.0"/>
      <point x="354.0" y="239.0"/>
      <point x="409.0" y="275.0" type="curve" smooth="yes"/>
      <point x="471.0" y="315.0"/>
      <point x="580.0" y="308.0"/>
      <point x="627.0" y="234.0" type="curve" smooth="yes"/>
      <point x="640.0" y="213.0"/>
      <point x="648.0" y="186.0"/>
      <point x="648.0" y="155.0" type="curve" smooth="yes"/>
      <point x="648.0" y="-129.0" type="line" smooth="yes"/>
      <point x="648.0" y="-164.0"/>
      <point x="620.0" y="-199.0"/>
      <point x="577.0" y="-199.0" type="curve" smooth="yes"/>
      <point x="155.0" y="-199.0" type="line" smooth="yes"/>
      <point x="91.0" y="-199.0"/>
      <point x="40.0" y="-156.0"/>
      <point x="40.0" y="-89.0" type="curve" smooth="yes"/>
      <point x="40.0" y="153.0" type="line"/>
      <point x="72.0" y="153.0" type="line"/>
      <point x="72.0" y="-89.0" type="line" smooth="yes"/>
      <point x="72.0" y="-138.0"/>
      <point x="105.0" y="-167.0"/>
      <point x="155.0" y="-167.0" type="curve" smooth="yes"/>
      <point x="577.0" y="-167.0" type="line" smooth="yes"/>
      <point x="602.0" y="-167.0"/>
      <point x="616.0" y="-148.0"/>
      <point x="616.0" y="-129.0" type="curve" smooth="yes"/>
      <point x="616.0" y="155.0" type="line" smooth="yes"/>
      <point x="616.0" y="181.0"/>
      <point x="610.0" y="201.0"/>
      <point x="600.0" y="217.0" type="curve" smooth="yes"/>
      <point x="565.0" y="273.0"/>
      <point x="477.0" y="281.0"/>
      <point x="427.0" y="249.0" type="curve" smooth="yes"/>
      <point x="384.0" y="221.0"/>
      <point x="353.0" y="146.0"/>
      <point x="388.0" y="89.0" type="curve" smooth="yes"/>
      <point x="424.0" y="29.0"/>
      <point x="468.0" y="29.0"/>
      <point x="623.0" y="32.0" type="curve" smooth="yes"/>
    </contour>
  </outline>
</glyph>
<glyph name="arReh.fina" format="2">
  <advance width="300"/>
  <outline>
    <contour>
      <point x="310.0" y="32.0" type="line"/>
      <point x="310.0" y="0.0" type="line"/>
      <point x="179.0" y="0.0" type="line"/>
      <point x="179.0" y="32.0" type="line"/>
    </contour>
    <component base="arReh.isol" yOffset="-1.0"/>
  </outline>
</glyph>
<glyph name="arSad.head" format="2">
  <anchor x="0" y="507.0" name="dotAbove"/>
  <anchor x="0" y="545.0" name="markAbove"/>
  <anchor x="0" y="-200.0" name="dotBelow"/>
  <anchor x="0" y="-220.0" name="markBelow"/>
  <outline>
    <contour>
      <point x="-215.77754756038507" y="28.858711849254178" type="line"/>
      <point x="-116.77754756038507" y="167.85871184925418"/>
      <point x="-2.693489016312043" y="349.7830559426525"/>
      <point x="131.0" y="298.0" type="curve" smooth="yes"/>
      <point x="188.66387944195017" y="275.66524071603715"/>
      <point x="216.0" y="220.0"/>
      <point x="218.0" y="135.0" type="curve" smooth="yes"/>
      <point x="220.0" y="69.0" type="line" smooth="yes"/>
      <point x="221.0" y="31.0"/>
      <point x="190.0" y="0.0"/>
      <point x="151.0" y="0.0" type="curve" smooth="yes"/>
      <point x="-221.0" y="0.0" type="line"/>
      <point x="-221.0" y="32.0" type="line"/>
      <point x="151.0" y="32.0" type="line" smooth="yes"/>
      <point x="174.0" y="32.0"/>
      <point x="189.0" y="48.0"/>
      <point x="188.0" y="67.0" type="curve" smooth="yes"/>
      <point x="186.0" y="135.0" type="line" smooth="yes"/>
      <point x="184.0" y="214.0"/>
      <point x="162.59500054533152" y="251.49315513331965"/>
      <point x="120.0" y="268.0" type="curve" smooth="yes"/>
      <point x="17.305407935681444" y="307.79724564268236"/>
      <point x="-88.77754756038507" y="152.85871184925418"/>
      <point x="-190.77754756038507" y="10.858711849254178" type="curve"/>
    </contour>
  </outline>
</glyph>
<glyph name="arSad.init" format="2">
  <advance width="629.0235298669576"/>
  <anchor x="374.0" y="-149.0" name="dotBelow"/>
  <anchor x="374.0" y="-169.0" name="markBelow"/>
  <anchor x="286.0" y="427.0" name="dotAbove"/>
  <anchor x="286.0" y="464.0" name="markAbove"/>
  <outline>
    <contour>
      <point x="0.0" y="0.0" type="line"/>
      <point x="0.0" y="32.0" type="line"/>
      <point x="157.0" y="32.0" type="line"/>
      <point x="157.0" y="0.0" type="line"/>
    </contour>
    <contour>
      <point x="123.0" y="241.0" type="line"/>
      <point x="155.0" y="241.0" type="line"/>
      <point x="155.0" y="22.0" type="line"/>
      <point x="123.0" y="22.0" type="line"/>
    </contour>
    <component base="arSad.head" xOffset="369.0"/>
  </outline>
</glyph>
<glyph name="arSwashKaf.init" format="2">
  <advance width="786.8033172700673"/>
  <anchor x="369.0" y="-179.0" name="markBelow"/>
  <anchor x="117.46860643185298" y="482.15926493108725" name="markAbove"/>
  <outline>
    <contour>
      <point x="0.0" y="0.0" type="line"/>
      <point x="0.0" y="32.0" type="line"/>
      <point x="680.0" y="32.0" type="line" smooth="yes"/>
      <point x="720.0" y="32.0"/>
      <point x="720.0" y="68.0"/>
      <point x="708.0" y="90.0" type="curve" smooth="yes"/>
      <point x="697.0" y="111.0"/>
      <point x="656.0" y="200.0"/>
      <point x="534.0" y="200.0" type="curve" smooth="yes"/>
      <point x="95.0" y="200.0" type="line" smooth="yes"/>
      <point x="36.0" y="200.0"/>
      <point x="43.0" y="276.0"/>
      <point x="80.0" y="317.0" type="curve" smooth="yes"/>
      <point x="159.0" y="404.0"/>
      <point x="309.0" y="464.0"/>
      <point x="410.0" y="483.0" type="curve"/>
      <point x="416.0" y="451.0" type="line"/>
      <point x="321.0" y="433.0"/>
      <point x="168.0" y="369.0"/>
      <point x="104.0" y="295.0" type="curve" smooth="yes"/>
      <point x="88.0" y="277.0"/>
      <point x="72.0" y="232.0"/>
      <point x="95.0" y="232.0" type="curve" smooth="yes"/>
      <point x="534.0" y="232.0" type="line" smooth="yes"/>
      <point x="675.0" y="232.0"/>
      <point x="720.0" y="128.0"/>
      <point x="736.0" y="106.0" type="curve" smooth="yes"/>
      <point x="753.0" y="81.0"/>
      <point x="759.0" y="0.0"/>
      <point x="680.0" y="0.0" type="curve" smooth="yes"/>
    </contour>
  </outline>
</glyph>
<glyph name="arSwashKaf.isol" format="2">
  <advance width="850.6347591765035"/>
  <outline>
    <contour>
      <point x="82.0" y="32.0" type="line"/>
      <point x="106.0" y="0.0" type="line"/>
      <point x="64.0" y="0.0" type="line"/>
      <point x="40.0" y="32.0" type="line"/>
    </contour>
    <component base="arSwashKaf.init" xOffset="64.0"/>
  </outline>
</glyph>
<glyph name="arTah.isol" format="2">
  <advance width="615.6674950675861"/>
  <anchor x="399.0" y="485.0" name="dotAbove"/>
  <anchor x="399.0" y="523.0" name="markAbove"/>
  <anchor x="362.0" y="-110.0" name="dotBelow"/>
  <anchor x="362.0" y="-130.0" name="markBelow"/>
  <outline>
    <contour>
      <point x="148.0" y="624.0" type="line"/>
      <point x="180.0" y="624.0" type="line"/>
      <point x="180.0" y="128.47648532676948" type="line" smooth="yes"/>
      <point x="180.0" y="91.20971546240014"/>
      <point x="180.0" y="59.26676986436931"/>
      <point x="173.0" y="22.0" type="curve"/>
      <point x="144.0" y="22.0" type="line"/>
      <point x="148.0" y="53.55933738121183"/>
      <point x="148.0" y="80.6101979936791"/>
      <point x="148.0" y="112.16953537489096" type="curve" smooth="yes"/>
    </contour>
    <contour>
      <point x="39.636575634993804" y="-0.09367712547088303" type="line"/>
      <point x="39.636575634993804" y="31.906322874529117" type="line"/>
      <point x="506.6365756349938" y="31.906322874529117" type="line" smooth="yes"/>
      <point x="529.6365756349938" y="31.906322874529117"/>
      <point x="544.1959307396487" y="47.88824931628329"/>
      <point x="543.6365756349938" y="66.90632287452911" type="curve" smooth="yes"/>
      <point x="541.6365756349938" y="134.9063228745291" type="line" smooth="yes"/>
      <point x="539.3133063978743" y="213.8974769365602"/>
      <point x="518.2315761803253" y="251.39947800784876"/>
      <point x="475.6365756349938" y="267.9063228745291" type="curve" smooth="yes"/>
      <point x="372.94198357067523" y="307.70356851721147"/>
      <point x="264.0" y="157.0"/>
      <point x="162.0" y="15.0" type="curve"/>
      <point x="141.0" y="28.0" type="line"/>
      <point x="240.0" y="167.0"/>
      <point x="352.9430866186818" y="349.6893788171816"/>
      <point x="486.6365756349938" y="297.9063228745291" type="curve" smooth="yes"/>
      <point x="544.300455076944" y="275.57156359056626"/>
      <point x="571.0612872838038" y="219.89083846359753"/>
      <point x="573.6365756349938" y="134.9063228745291" type="curve" smooth="yes"/>
      <point x="575.6365756349938" y="68.90632287452911" type="line" smooth="yes"/>
      <point x="576.7879609195118" y="30.91060848557848"/>
      <point x="545.6365756349938" y="-0.09367712547088303"/>
      <point x="506.6365756349938" y="-0.09367712547088303" type="curve" smooth="yes"/>
    </contour>
  </outline>
</glyph>
<glyph name="arTail.above" format="2">
  <anchor x="0.0" y="0.0" name="_tailAbove"/>
  <outline>
    <contour>
      <point x="-2.0" y="34.0" type="line"/>
      <point x="19.0" y="9.0" type="line"/>
      <point x="-48.0" y="-56.0" type="line"/>
      <point x="-66.0" y="-39.0" type="line"/>
    </contour>
  </outline>
</glyph>
<glyph name="arWavyHamza.above" format="2">
  <anchor x="0" y="0" name="_hamzaAbove"/>
  <anchor x="0" y="237.0" name="markAbove"/>
  <outline>
    <contour>
      <point x="-31.0" y="0.0" type="line"/>
      <point x="-47.0" y="0.0" type="line" smooth="yes"/>
      <point x="-69.7827377319336" y="0.0"/>
      <point x="-87.12484741210938" y="6.842857837677002"/>
      <point x="-103.31280517578125" y="31.12479591369629" type="curve" smooth="yes"/>
      <point x="-112.69285583496094" y="45.19487762451172"/>
      <point x="-118.56462097167969" y="49.0"/>
      <point x="-130.0" y="49.0" type="curve" smooth="yes"/>
      <point x="-136.29903411865234" y="49.0"/>
      <point x="-153.0" y="40.0359992980957"/>
      <point x="-153.0" y="0.0" type="curve"/>
      <point x="-185.0" y="0.0" type="line"/>
      <point x="-185.0" y="45.9640007019043"/>
      <point x="-163.80084228515625" y="81.0"/>
      <point x="-130.0" y="81.0" type="curve" smooth="yes"/>
      <point x="-105.37986755371094" y="81.0"/>
      <point x="-88.73322296142578" y="66.94424438476562"/>
      <point x="-76.68719482421875" y="48.87520217895508" type="curve" smooth="yes"/>
      <point x="-68.87515640258789" y="37.157142639160156"/>
      <point x="-60.217262268066406" y="32.0"/>
      <point x="-47.0" y="32.0" type="curve" smooth="yes"/>
      <point x="-31.0" y="32.0" type="line"/>
    </contour>
    <contour>
      <point x="96.0" y="143.0" type="line"/>
      <point x="96.0" y="111.0" type="line"/>
      <point x="3.0" y="111.0" type="line"/>
      <point x="37.0" y="40.0" type="line" smooth="yes"/>
      <point x="40.0" y="34.0"/>
      <point x="46.0" y="21.0"/>
      <point x="38.0" y="9.0" type="curve" smooth="yes"/>
      <point x="33.0" y="1.0"/>
      <point x="21.0" y="0.0"/>
      <point x="15.0" y="0.0" type="curve" smooth="yes"/>
      <point x="-36.0" y="0.0" type="line"/>
      <point x="-36.0" y="32.0" type="line"/>
      <point x="5.0" y="32.0" type="line"/>
      <point x="-29.0" y="102.0" type="line"/>
      <point x="-29.0" y="103.0"/>
      <point x="-39.0" y="122.0"/>
      <point x="-28.0" y="134.0" type="curve" smooth="yes"/>
      <point x="-23.0" y="140.0"/>
      <point x="-13.0" y="143.0"/>
      <point x="-3.0" y="143.0" type="curve" smooth="yes"/>
    </contour>
  </outline>
</glyph>
<glyph name="arWaw.fina" format="2">
  <advance width="460"/>
  <outline>
    <contour>
      <point x="470.0" y="32.0" type="line"/>
      <point x="470.0" y="0.0" type="line"/>
      <point x="313.0" y="0.0" type="line"/>
      <point x="313.0" y="32.0" type="line"/>
    </contour>
    <component base="arWaw.isol"/>
  </outline>
</glyph>
<glyph name="arYeh.fina2" format="2">
  <advance width="661"/>
  <anchor x="380.0" y="319.0" name="dotAbove"/>
  <anchor x="380.0" y="319.0" name="hamzaAbove"/>
  <anchor x="380.0" y="319.0" name="kafAbove"/>
  <anchor x="380.0" y="357.0" name="markAbove"/>
  <anchor x="330.0" y="-376.0" name="dotBelow"/>
  <anchor x="330.0" y="-396.0" name="markBelow"/>
  <outline>
    <contour>
      <point x="662.0" y="-244.0" type="line"/>
      <point x="662.0" y="-276.0" type="line"/>
      <point x="224.0" y="-276.0" type="line" smooth="yes"/>
      <point x="119.0" y="-276.0"/>
      <point x="59.0" y="-231.0"/>
      <point x="44.0" y="-173.0" type="curve" smooth="yes"/>
      <point x="27.0" y="-108.0"/>
      <point x="68.0" y="-36.0"/>
      <point x="143.0" y="-16.0" type="curve" smooth="yes"/>
      <point x="248.0" y="12.0"/>
      <point x="230.0" y="44.0"/>
      <point x="255.0" y="86.0" type="curve" smooth="yes"/>
      <point x="279.0" y="127.0"/>
      <point x="320.0" y="162.0"/>
      <point x="379.0" y="160.0" type="curve" smooth="yes"/>
      <point x="422.0" y="159.0"/>
      <point x="463.0" y="134.0"/>
      <point x="486.0" y="91.0" type="curve" smooth="yes"/>
      <point x="509.0" y="46.0"/>
      <point x="538.0" y="32.0"/>
      <point x="588.0" y="32.0" type="curve" smooth="yes"/>
      <point x="671.0" y="32.0" type="line"/>
      <point x="671.0" y="0.0" type="line"/>
      <point x="588.0" y="0.0" type="line" smooth="yes"/>
      <point x="530.0" y="0.0"/>
      <point x="487.0" y="22.0"/>
      <point x="458.0" y="77.0" type="curve" smooth="yes"/>
      <point x="441.0" y="109.0"/>
      <point x="411.0" y="127.0"/>
      <point x="379.0" y="128.0" type="curve" smooth="yes"/>
      <point x="333.0" y="130.0"/>
      <point x="303.0" y="103.0"/>
      <point x="283.0" y="70.0" type="curve" smooth="yes"/>
      <point x="266.0" y="40.0"/>
      <point x="266.0" y="-16.0"/>
      <point x="151.0" y="-46.0" type="curve" smooth="yes"/>
      <point x="92.0" y="-62.0"/>
      <point x="63.0" y="-118.0"/>
      <point x="75.0" y="-165.0" type="curve" smooth="yes"/>
      <point x="86.0" y="-205.0"/>
      <point x="128.0" y="-244.0"/>
      <point x="224.0" y="-244.0" type="curve" smooth="yes"/>
    </contour>
  </outline>
</glyph>
<glyph name="behDotless-ar.init" format="2">
  <advance width="398"/>
  <anchor x="199" y="490" name="dotAbove"/>
  <anchor x="199" y="-150" name="dotBelow"/>
  <anchor x="199" y="490" name="hamzaAbove"/>
  <anchor x="199" y="-150" name="hamzaBelow"/>
  <anchor x="199" y="490" name="kafAbove"/>
  <anchor x="199" y="528" name="markAbove"/>
  <anchor x="199" y="-170" name="markBelow"/>
  <anchor x="199" y="0" name="ringBelow"/>
  <outline>
    <contour>
      <point x="326" y="340" type="line"/>
      <point x="358" y="340" type="line"/>
      <point x="358" y="67" type="line" smooth="yes"/>
      <point x="358" y="29"/>
      <point x="328" y="0"/>
      <point x="289" y="0" type="curve" smooth="yes"/>
      <point x="0" y="0" type="line"/>
      <point x="0" y="32" type="line"/>
      <point x="289" y="32" type="line" smooth="yes"/>
      <point x="312" y="32"/>
      <point x="326" y="47"/>
      <point x="326" y="67" type="curve" smooth="yes"/>
    </contour>
  </outline>
</glyph>
<glyph name="behDotless-ar.isol" format="2">
  <advance width="674"/>
  <anchor x="337" y="393" name="dotAbove"/>
  <anchor x="357" y="-150" name="dotBelow"/>
  <anchor x="337" y="393" name="hamzaAbove"/>
  <anchor x="357" y="-150" name="hamzaBelow"/>
  <anchor x="337" y="430" name="markAbove"/>
  <anchor x="357" y="-170" name="markBelow"/>
  <anchor x="357" y="0" name="ringBelow"/>
  <outline>
    <contour>
      <point x="602" y="263" type="line"/>
      <point x="634" y="263" type="line"/>
      <point x="634" y="68" type="line" smooth="yes"/>
      <point x="634" y="32"/>
      <point x="600" y="0"/>
      <point x="566" y="0" type="curve" smooth="yes"/>
      <point x="174" y="0" type="line" smooth="yes"/>
      <point x="104" y="0"/>
      <point x="40" y="53"/>
      <point x="40" y="123" type="curve" smooth="yes"/>
      <point x="40" y="263" type="line"/>
      <point x="72" y="263" type="line"/>
      <point x="72" y="123" type="line" smooth="yes"/>
      <point x="72" y="73"/>
      <point x="118" y="32"/>
      <point x="174" y="32" type="curve" smooth="yes"/>
      <point x="566" y="32" type="line" smooth="yes"/>
      <point x="582" y="32"/>
      <point x="602" y="52"/>
      <point x="602" y="68" type="curve" smooth="yes"/>
    </contour>
  </outline>
</glyph>
<glyph name="braceleft.ar" format="2">
  <advance width="362"/>
  <outline>
    <contour>
      <point x="342" y="-258" type="curve"/>
      <point x="342" y="-290" type="line"/>
      <point x="261.427" y="-290"/>
      <point x="185" y="-250.229"/>
      <point x="185" y="-151" type="curve" smooth="yes"/>
      <point x="185" y="87" type="line" smooth="yes"/>
      <point x="185" y="142.069"/>
      <point x="155.072" y="174.231"/>
      <point x="98.963" y="184.655" type="curve" smooth="yes"/>
      <point x="87.139" y="186.853"/>
      <point x="74.111" y="188"/>
      <point x="60" y="188" type="curve"/>
      <point x="60" y="220" type="line"/>
      <point x="74.247" y="220"/>
      <point x="87.348" y="221.289"/>
      <point x="99.216" y="223.699" type="curve" smooth="yes"/>
      <point x="155.349" y="235.098"/>
      <point x="185" y="270.185"/>
      <point x="185" y="322" type="curve" smooth="yes"/>
      <point x="185" y="574" type="line" smooth="yes"/>
      <point x="185" y="657.668"/>
      <point x="262.163" y="699.106"/>
      <point x="342.421" y="696.994" type="curve"/>
      <point x="341.579" y="665.006" type="line"/>
      <point x="269.837" y="666.894"/>
      <point x="217" y="632.332"/>
      <point x="217" y="574" type="curve" smooth="yes"/>
      <point x="217" y="322" type="line" smooth="yes"/>
      <point x="217" y="268.948"/>
      <point x="189.788" y="226.304"/>
      <point x="143.306" y="204.491" type="curve"/>
      <point x="191" y="183.251"/>
      <point x="217" y="142.531"/>
      <point x="217" y="87" type="curve" smooth="yes"/>
      <point x="217" y="-151" type="line" smooth="yes"/>
      <point x="217" y="-227.771"/>
      <point x="270.573" y="-258"/>
    </contour>
  </outline>
</glyph>
<glyph name="bracketleft.ar" format="2">
  <advance width="238"/>
  <outline>
    <contour>
      <point x="217" y="696" type="line"/>
      <point x="217" y="664" type="line"/>
      <point x="92" y="664" type="line"/>
      <point x="92" y="-256" type="line"/>
      <point x="218" y="-256" type="line"/>
      <point x="218" y="-288" type="line"/>
      <point x="60" y="-288" type="line"/>
      <point x="60" y="696" type="line"/>
    </contour>
  </outline>
</glyph>
<glyph name="damma-ar.alt" format="2">
  <anchor x="95" y="0" name="_dammaHamza"/>
  <anchor x="0" y="0" name="_hamzaAbove"/>
  <outline>
    <contour>
      <point x="-27" y="-20" type="line"/>
      <point x="23" y="6"/>
      <point x="43" y="49"/>
      <point x="43" y="91" type="curve" smooth="yes"/>
      <point x="43" y="131"/>
      <point x="28" y="152"/>
      <point x="2" y="152" type="curve" smooth="yes"/>
      <point x="-16" y="152"/>
      <point x="-31" y="141"/>
      <point x="-31" y="115" type="curve" smooth="yes"/>
      <point x="-31" y="92"/>
      <point x="-12" y="83"/>
      <point x="3" y="83" type="curve" smooth="yes"/>
      <point x="16" y="83"/>
      <point x="24" y="87"/>
      <point x="34" y="101" type="curve"/>
      <point x="-3" y="134" type="line"/>
      <point x="11" y="86" type="line"/>
      <point x="11" y="54"/>
      <point x="-4" y="26"/>
      <point x="-42" y="5" type="curve"/>
    </contour>
  </outline>
</glyph>
<glyph name="dotabove-ar" format="2">
  <anchor x="0" y="0" name="_dotAbove"/>
  <anchor x="0" y="127" name="markAboveDot"/>
  <outline>
    <contour>
      <point x="-25" y="0" type="curve" smooth="yes"/>
      <point x="-25" y="14"/>
      <point x="-14" y="25"/>
      <point x="0" y="25" type="curve" smooth="yes"/>
      <point x="14" y="25"/>
      <point x="25" y="14"/>
      <point x="25" y="0" type="curve" smooth="yes"/>
      <point x="25" y="-14"/>
      <point x="14" y="-25"/>
      <point x="0" y="-25" type="curve" smooth="yes"/>
      <point x="-14" y="-25"/>
      <point x="-25" y="-14"/>
    </contour>
  </outline>
</glyph>
<glyph name="extender" format="2">
  <outline>
    <contour>
      <point x="10" y="32" type="line"/>
      <point x="10" y="0" type="line"/>
      <point x="-10" y="0" type="line"/>
      <point x="-10" y="32" type="line"/>
    </contour>
  </outline>
</glyph>
<glyph name="fehDotless-ar.init" format="2">
  <advance width="463"/>
  <anchor x="274" y="590" name="dotAbove"/>
  <anchor x="231" y="-150" name="dotBelow"/>
  <anchor x="274" y="628" name="markAbove"/>
  <anchor x="231" y="-170" name="markBelow"/>
  <outline>
    <contour>
      <point x="0" y="32" type="line"/>
      <point x="352" y="32" type="line" smooth="yes"/>
      <point x="377" y="32"/>
      <point x="391" y="51"/>
      <point x="391" y="70" type="curve" smooth="yes"/>
      <point x="391" y="295" type="line" smooth="yes"/>
      <point x="391" y="321"/>
      <point x="385" y="341"/>
      <point x="375" y="357" type="curve" smooth="yes"/>
      <point x="340" y="413"/>
      <point x="252" y="421"/>
      <point x="202" y="389" type="curve" smooth="yes"/>
      <point x="159" y="361"/>
      <point x="128" y="286"/>
      <point x="163" y="229" type="curve" smooth="yes"/>
      <point x="207" y="156"/>
      <point x="290" y="166"/>
      <point x="405" y="178" type="curve"/>
      <point x="405" y="146" type="line"/>
      <point x="312" y="134"/>
      <point x="192" y="119"/>
      <point x="135" y="213" type="curve" smooth="yes"/>
      <point x="90" y="288"/>
      <point x="129" y="379"/>
      <point x="184" y="415" type="curve" smooth="yes"/>
      <point x="246" y="455"/>
      <point x="355" y="448"/>
      <point x="402" y="374" type="curve" smooth="yes"/>
      <point x="415" y="353"/>
      <point x="423" y="326"/>
      <point x="423" y="295" type="curve" smooth="yes"/>
      <point x="423" y="70" type="line" smooth="yes"/>
      <point x="423" y="35"/>
      <point x="395" y="0"/>
      <point x="352" y="0" type="curve" smooth="yes"/>
      <point x="0" y="0" type="line"/>
    </contour>
  </outline>
</glyph>
<glyph name="four-persian.urdu" format="2">
  <advance width="475"/>
  <outline>
    <contour>
      <point x="62" y="-1" type="line"/>
      <point x="62" y="486" type="line" smooth="yes"/>
      <point x="62" y="546"/>
      <point x="107" y="592"/>
      <point x="169" y="592" type="curve"/>
      <point x="246" y="592" type="line"/>
      <point x="246" y="409" type="line"/>
      <point x="278" y="409" type="line"/>
      <point x="278" y="486" type="line" smooth="yes"/>
      <point x="278" y="546"/>
      <point x="323" y="592"/>
      <point x="385" y="592" type="curve" smooth="yes"/>
      <point x="445" y="592" type="line"/>
      <point x="445" y="624" type="line"/>
      <point x="385" y="624" type="line" smooth="yes"/>
      <point x="340" y="624"/>
      <point x="302" y="606"/>
      <point x="277" y="575" type="curve"/>
      <point x="277" y="624" type="line"/>
      <point x="169" y="624" type="line"/>
      <point x="89" y="624"/>
      <point x="30" y="564"/>
      <point x="30" y="486" type="curve" smooth="yes"/>
      <point x="30" y="-1" type="line"/>
    </contour>
  </outline>
</glyph>
<glyph name="gafsarkashabove-ar" format="2">
  <anchor x="0" y="0" name="_gafAbove"/>
  <anchor x="-190" y="0" name="dotAboveGaf"/>
  <outline>
    <contour>
      <point x="-160" y="-35" type="curve"/>
      <point x="-176" y="-8" type="line"/>
      <point x="-72" y="56"/>
      <point x="134" y="102"/>
      <point x="176" y="103" type="curve"/>
      <point x="176" y="71" type="line"/>
      <point x="144" y="70"/>
      <point x="-66" y="23"/>
    </contour>
  </outline>
</glyph>
<glyph name="hah-ar.2" format="2">
  <advance width="476"/>
  <anchor x="158" y="447" name="dotAbove"/>
  <anchor x="248" y="-20" name="dotBelow"/>
  <anchor x="158" y="447" name="hamzaAbove"/>
  <anchor x="158" y="484" name="markAbove"/>
  <anchor x="248" y="-60" name="markBelow"/>
  <outline>
    <contour>
      <point x="40" y="-168" type="curve" smooth="yes"/>
      <point x="40" y="11" type="line" smooth="yes"/>
      <point x="40" y="65"/>
      <point x="87" y="123"/>
      <point x="148" y="123" type="curve" smooth="yes"/>
      <point x="401" y="123" type="line"/>
      <point x="359" y="132"/>
      <point x="328" y="162"/>
      <point x="301" y="191" type="curve" smooth="yes"/>
      <point x="260" y="236"/>
      <point x="219" y="309"/>
      <point x="113" y="349" type="curve"/>
      <point x="125" y="379" type="line"/>
      <point x="241" y="335"/>
      <point x="288" y="254"/>
      <point x="325" y="213" type="curve" smooth="yes"/>
      <point x="362" y="173"/>
      <point x="387" y="153"/>
      <point x="436" y="153" type="curve"/>
      <point x="436" y="137" type="line" smooth="yes"/>
      <point x="436" y="124"/>
      <point x="424" y="91"/>
      <point x="393" y="91" type="curve" smooth="yes"/>
      <point x="148" y="91" type="line" smooth="yes"/>
      <point x="107" y="91"/>
      <point x="71.998" y="49"/>
      <point x="72" y="11" type="curve" smooth="yes"/>
      <point x="72.013" y="-200.045" type="line"/>
      <point x="52.152" y="-199.831"/>
      <point x="40" y="-183.455"/>
    </contour>
  </outline>
</glyph>
<glyph name="hah-ar.init" format="2">
  <advance width="566"/>
  <anchor x="144" y="386" name="dotAbove"/>
  <anchor x="233" y="-150" name="dotBelow"/>
  <anchor x="144" y="386" name="hamzaAbove"/>
  <anchor x="144" y="423" name="markAbove"/>
  <anchor x="233" y="-170" name="markBelow"/>
  <outline>
    <contour>
      <point x="0" y="0" type="line"/>
      <point x="0" y="32" type="line"/>
      <point x="483" y="32" type="line" smooth="yes"/>
      <point x="486" y="32"/>
      <point x="489" y="34"/>
      <point x="492" y="40" type="curve"/>
      <point x="451" y="47"/>
      <point x="417" y="73"/>
      <point x="388" y="99" type="curve" smooth="yes"/>
      <point x="344" y="138"/>
      <point x="299" y="192"/>
      <point x="249" y="227" type="curve" smooth="yes"/>
      <point x="197" y="264"/>
      <point x="144" y="276"/>
      <point x="103" y="286" type="curve"/>
      <point x="111" y="318" type="line"/>
      <point x="152" y="308"/>
      <point x="209" y="294"/>
      <point x="267" y="253" type="curve" smooth="yes"/>
      <point x="321" y="214"/>
      <point x="368" y="160"/>
      <point x="410" y="123" type="curve" smooth="yes"/>
      <point x="449" y="88"/>
      <point x="476" y="70"/>
      <point x="525" y="70" type="curve"/>
      <point x="526" y="55" type="line" smooth="yes"/>
      <point x="528" y="31"/>
      <point x="514" y="0"/>
      <point x="483" y="0" type="curve" smooth="yes"/>
    </contour>
  </outline>
</glyph>
<glyph name="heh-ar.init" format="2">
  <advance width="672"/>
  <anchor x="336" y="500" name="dotAbove"/>
  <anchor x="336" y="-150" name="dotBelow"/>
  <anchor x="336" y="500" name="hamzaAbove"/>
  <anchor x="336" y="500" name="kafAbove"/>
  <anchor x="336" y="665" name="markAbove"/>
  <anchor x="336" y="-170" name="markBelow"/>
  <outline>
    <contour>
      <point x="249" y="395" type="curve"/>
      <point x="249" y="427" type="line"/>
      <point x="517" y="423"/>
      <point x="636" y="228"/>
      <point x="632" y="68" type="curve" smooth="yes"/>
      <point x="632" y="30"/>
      <point x="601" y="0"/>
      <point x="564" y="0" type="curve" smooth="yes"/>
      <point x="0" y="0" type="line"/>
      <point x="0" y="32" type="line"/>
      <point x="564" y="32" type="line" smooth="yes"/>
      <point x="585" y="32"/>
      <point x="600" y="46"/>
      <point x="600" y="68" type="curve" smooth="yes"/>
      <point x="604" y="212"/>
      <point x="499" y="391"/>
    </contour>
    <contour>
      <point x="188" y="26" type="line"/>
      <point x="156" y="26" type="line"/>
      <point x="156" y="163" type="line" smooth="yes"/>
      <point x="156" y="203"/>
      <point x="173" y="234"/>
      <point x="200" y="252" type="curve" smooth="yes"/>
      <point x="257" y="290"/>
      <point x="347" y="267"/>
      <point x="403" y="182" type="curve" smooth="yes"/>
      <point x="421" y="153"/>
      <point x="430" y="126"/>
      <point x="431" y="102" type="curve" smooth="yes"/>
      <point x="432" y="37"/>
      <point x="376" y="1"/>
      <point x="322" y="0" type="curve"/>
      <point x="322" y="32" type="line"/>
      <point x="364" y="33"/>
      <point x="400" y="59"/>
      <point x="399" y="101" type="curve" smooth="yes"/>
      <point x="399" y="118"/>
      <point x="393" y="139"/>
      <point x="377" y="164" type="curve" smooth="yes"/>
      <point x="328" y="239"/>
      <point x="255" y="251"/>
      <point x="218" y="226" type="curve" smooth="yes"/>
      <point x="200" y="214"/>
      <point x="188" y="194"/>
      <point x="188" y="163" type="curve" smooth="yes"/>
    </contour>
  </outline>
</glyph>
<glyph name="hehgoal-ar.fina" format="2">
  <advance width="218"/>
  <anchor x="109" y="180" name="dotAbove"/>
  <anchor x="139" y="-120" name="dotBelow"/>
  <anchor x="109" y="180" name="hamzaAbove"/>
  <anchor x="109" y="180" name="kafAbove"/>
  <anchor x="109" y="217" name="markAbove"/>
  <anchor x="139" y="-140" name="markBelow"/>
  <outline>
    <contour>
      <point x="72" y="-58" type="line"/>
      <point x="40" y="-58" type="line"/>
      <point x="40" y="-5" type="line" smooth="yes"/>
      <point x="40" y="33"/>
      <point x="70" y="62"/>
      <point x="109" y="62" type="curve" smooth="yes"/>
      <point x="218" y="62" type="line"/>
      <point x="218" y="30" type="line"/>
      <point x="109" y="30" type="line" smooth="yes"/>
      <point x="86" y="30"/>
      <point x="72" y="15"/>
      <point x="72" y="-5" type="curve" smooth="yes"/>
    </contour>
  </outline>
</glyph>
<glyph name="hehgoal-ar.init" format="2">
  <advance width="298"/>
  <anchor x="99" y="490" name="dotAbove"/>
  <anchor x="99" y="528" name="markAbove"/>
  <outline>
    <contour>
      <point x="226" y="190" type="line"/>
      <point x="258" y="190" type="line"/>
      <point x="258" y="67" type="line" smooth="yes"/>
      <point x="258" y="29"/>
      <point x="228" y="0"/>
      <point x="189" y="0" type="curve" smooth="yes"/>
      <point x="0" y="0" type="line"/>
      <point x="0" y="32" type="line"/>
      <point x="189" y="32" type="line" smooth="yes"/>
      <point x="212" y="32"/>
      <point x="226" y="47"/>
      <point x="226" y="67" type="curve" smooth="yes"/>
    </contour>
    <contour>
      <point x="254" y="-154" type="curve"/>
      <point x="279" y="-174" type="line"/>
      <point x="252" y="-208"/>
      <point x="201" y="-215"/>
      <point x="174" y="-192" type="curve" smooth="yes"/>
      <point x="149" y="-171"/>
      <point x="143" y="-137"/>
      <point x="149" y="-103" type="curve" smooth="yes"/>
      <point x="159" y="-50"/>
      <point x="181" y="-6"/>
      <point x="215" y="42" type="curve"/>
      <point x="241" y="24" type="line"/>
      <point x="209" y="-22"/>
      <point x="199.751" y="-41.082"/>
      <point x="185.645" y="-86.37" type="curve" smooth="yes"/>
      <point x="162.479" y="-160.743"/>
      <point x="212.342" y="-194.205"/>
    </contour>
  </outline>
</glyph>
<glyph name="hehgoal-ar.medi" format="2">
  <advance width="526"/>
  <anchor x="263" y="232" name="dotAbove"/>
  <anchor x="321" y="-402" name="dotBelow"/>
  <anchor x="336" y="232" name="hamzaAbove"/>
  <anchor x="336" y="232" name="kafAbove"/>
  <anchor x="263" y="269" name="markAbove"/>
  <anchor x="321" y="-422" name="markBelow"/>
  <outline>
    <contour>
      <point x="319" y="-296" type="curve"/>
      <point x="287" y="-302" type="line"/>
      <point x="268" y="-202"/>
      <point x="233" y="-201"/>
      <point x="193" y="-137" type="curve" smooth="yes"/>
      <point x="149" y="-66"/>
      <point x="172" y="0"/>
      <point x="140" y="0" type="curve" smooth="yes"/>
      <point x="0" y="0" type="line"/>
      <point x="0" y="32" type="line"/>
      <point x="140" y="32" type="line" smooth="yes"/>
      <point x="208" y="32"/>
      <point x="197" y="-82"/>
      <point x="221" y="-121" type="curve" smooth="yes"/>
      <point x="253" y="-173"/>
      <point x="298" y="-188"/>
    </contour>
    <contour>
      <point x="350" y="-286" type="line"/>
      <point x="318" y="-286" type="line"/>
      <point x="318" y="-36" type="line" smooth="yes"/>
      <point x="318" y="1"/>
      <point x="349" y="32"/>
      <point x="386" y="32" type="curve" smooth="yes"/>
      <point x="536" y="32" type="line"/>
      <point x="536" y="0" type="line"/>
      <point x="386" y="0" type="line" smooth="yes"/>
      <point x="367" y="0"/>
      <point x="350" y="-17"/>
      <point x="350" y="-36" type="curve" smooth="yes"/>
    </contour>
  </outline>
</glyph>
<glyph name="kaf-ar.init" format="2">
  <advance width="478"/>
  <anchor x="69" y="619" name="dotAbove"/>
  <anchor x="129" y="-150" name="dotBelow"/>
  <anchor x="257" y="597" name="gafAbove"/>
  <anchor x="209" y="657" name="markAbove"/>
  <anchor x="129" y="-179" name="markBelow"/>
  <anchor x="287" y="532" name="ringBelow"/>
  <outline>
    <contour>
      <point x="0" y="0" type="line"/>
      <point x="0" y="32" type="line"/>
      <point x="342" y="32" type="line" smooth="yes"/>
      <point x="372" y="32"/>
      <point x="384.798" y="67.8"/>
      <point x="366" y="87" type="curve" smooth="yes"/>
      <point x="108.708" y="349.806" type="line" smooth="yes"/>
      <point x="106.66" y="351.898"/>
      <point x="104.476" y="352.697"/>
      <point x="101.549" y="352.751" type="curve" smooth="yes"/>
      <point x="91.9" y="352.928" type="line" smooth="yes"/>
      <point x="89.052" y="352.981"/>
      <point x="87.029" y="353.992"/>
      <point x="85.036" y="356.028" type="curve" smooth="yes"/>
      <point x="51.896" y="389.877" type="line" smooth="yes"/>
      <point x="24.686" y="417.671"/>
      <point x="28.383" y="455.271"/>
      <point x="86" y="486" type="curve" smooth="yes"/>
      <point x="191" y="542"/>
      <point x="326" y="581"/>
      <point x="438" y="599" type="curve"/>
      <point x="438" y="567" type="line"/>
      <point x="334" y="556"/>
      <point x="127" y="484"/>
      <point x="82" y="443" type="curve" smooth="yes"/>
      <point x="77.904" y="439.268"/>
      <point x="70.407" y="433.399"/>
      <point x="82.279" y="421.273" type="curve" smooth="yes"/>
      <point x="388" y="109" type="line" smooth="yes"/>
      <point x="424" y="72"/>
      <point x="402" y="0"/>
      <point x="342" y="0" type="curve" smooth="yes"/>
    </contour>
  </outline>
</glyph>
<glyph name="kafDotless-ar" format="2">
  <advance width="496"/>
  <anchor x="440" y="673" name="dotAbove"/>
  <anchor x="239" y="-110" name="dotBelow"/>
  <anchor x="230" y="270" name="hamzaAbove"/>
  <anchor x="230" y="270" name="kafAbove"/>
  <anchor x="440" y="711" name="markAbove"/>
  <anchor x="239" y="-130" name="markBelow"/>
  <outline>
    <contour>
      <point x="82" y="32" type="line"/>
      <point x="106" y="0" type="line"/>
      <point x="64" y="0" type="line"/>
      <point x="40" y="32" type="line"/>
    </contour>
    <contour>
      <point x="424" y="624" type="line"/>
      <point x="456" y="624" type="line"/>
      <point x="456" y="70" type="line" smooth="yes"/>
      <point x="456" y="35"/>
      <point x="430" y="0"/>
      <point x="386" y="0" type="curve" smooth="yes"/>
      <point x="64" y="0" type="line"/>
      <point x="64" y="32" type="line"/>
      <point x="386" y="32" type="line" smooth="yes"/>
      <point x="410" y="32"/>
      <point x="424" y="51"/>
      <point x="424" y="70" type="curve" smooth="yes"/>
    </contour>
  </outline>
</glyph>
<glyph name="kafswash-ar.init" format="2">
  <advance width="786.80332"/>
  <anchor x="117.469" y="482.159" name="markAbove"/>
  <anchor x="369" y="-179" name="markBelow"/>
  <outline>
    <contour>
      <point x="0" y="0" type="line"/>
      <point x="0" y="32" type="line"/>
      <point x="680" y="32" type="line" smooth="yes"/>
      <point x="720" y="32"/>
      <point x="720" y="68"/>
      <point x="708" y="90" type="curve" smooth="yes"/>
      <point x="697" y="111"/>
      <point x="656" y="200"/>
      <point x="534" y="200" type="curve" smooth="yes"/>
      <point x="95" y="200" type="line" smooth="yes"/>
      <point x="36" y="200"/>
      <point x="43" y="276"/>
      <point x="80" y="317" type="curve" smooth="yes"/>
      <point x="159" y="404"/>
      <point x="309" y="464"/>
      <point x="410" y="483" type="curve"/>
      <point x="416" y="451" type="line"/>
      <point x="321" y="433"/>
      <point x="168" y="369"/>
      <point x="104" y="295" type="curve" smooth="yes"/>
      <point x="88" y="277"/>
      <point x="72" y="232"/>
      <point x="95" y="232" type="curve" smooth="yes"/>
      <point x="534" y="232" type="line" smooth="yes"/>
      <point x="675" y="232"/>
      <point x="720" y="128"/>
      <point x="736" y="106" type="curve" smooth="yes"/>
      <point x="753" y="81"/>
      <point x="759" y="0"/>
      <point x="680" y="0" type="curve" smooth="yes"/>
    </contour>
  </outline>
</glyph>
<glyph name="keheh-ar.isol" format="2">
  <advance width="542"/>
  <anchor x="133" y="619" name="dotAbove"/>
  <anchor x="313" y="-149" name="dotBelow"/>
  <anchor x="321" y="597" name="gafAbove"/>
  <anchor x="273" y="657" name="markAbove"/>
  <anchor x="313" y="-169" name="markBelow"/>
  <anchor x="351" y="533" name="ringBelow"/>
  <outline>
    <contour>
      <point x="82" y="32" type="line"/>
      <point x="106" y="0" type="line"/>
      <point x="64" y="0" type="line"/>
      <point x="40" y="32" type="line"/>
    </contour>
    <component base="kaf-ar.medi" xOffset="64"/>
  </outline>
</glyph>
<glyph name="lam-ar.init.1" format="2">
  <advance width="162"/>
  <anchor x="107" y="560" name="dash"/>
  <anchor x="105" y="723" name="dotAbove"/>
  <anchor x="105" y="-100" name="dotBelow"/>
  <anchor x="105" y="761" name="markAbove"/>
  <anchor x="105" y="-120" name="markBelow"/>
  <outline>
    <contour>
      <point x="90" y="624" type="line"/>
      <point x="122" y="624" type="line"/>
      <point x="122" y="70" type="line" smooth="yes"/>
      <point x="122" y="30"/>
      <point x="92" y="0"/>
      <point x="55" y="0" type="curve" smooth="yes"/>
      <point x="-160" y="0" type="line"/>
      <point x="-160" y="32" type="line"/>
      <point x="55" y="32" type="line" smooth="yes"/>
      <point x="74" y="32"/>
      <point x="90" y="46"/>
      <point x="90" y="70" type="curve" smooth="yes"/>
    </contour>
  </outline>
</glyph>
<glyph name="lam-ar.init" format="2">
  <advance width="196"/>
  <anchor x="142" y="450" name="dash"/>
  <anchor x="140" y="723" name="dotAbove"/>
  <anchor x="110" y="-100" name="dotBelow"/>
  <anchor x="140" y="761" name="markAbove"/>
  <anchor x="110" y="-120" name="markBelow"/>
  <outline>
    <contour>
      <point x="124" y="624" type="line"/>
      <point x="156" y="624" type="line"/>
      <point x="156" y="70" type="line" smooth="yes"/>
      <point x="156" y="36"/>
      <point x="131" y="0"/>
      <point x="87" y="0" type="curve" smooth="yes"/>
      <point x="0" y="0" type="line"/>
      <point x="0" y="32" type="line"/>
      <point x="87" y="32" type="line" smooth="yes"/>
      <point x="111" y="32"/>
      <point x="124" y="50"/>
      <point x="124" y="70" type="curve" smooth="yes"/>
    </contour>
  </outline>
</glyph>
<glyph name="meem-ar.fina" format="2">
  <advance width="408"/>
  <anchor x="240" y="449" name="dotAbove"/>
  <anchor x="162" y="-109" name="dotBelow"/>
  <anchor x="240" y="487" name="markAbove"/>
  <anchor x="162" y="-129" name="markBelow"/>
  <outline>
    <contour>
      <point x="418" y="32" type="line"/>
      <point x="418" y="0" type="line"/>
      <point x="351" y="0" type="line"/>
      <point x="351" y="32" type="line"/>
    </contour>
    <component base="meem-ar"/>
  </outline>
</glyph>
<glyph name="meem-ar.init" format="2">
  <advance width="475"/>
  <anchor x="267" y="448" name="dotAbove"/>
  <anchor x="189" y="-110" name="dotBelow"/>
  <anchor x="267" y="486" name="markAbove"/>
  <anchor x="189" y="-130" name="markBelow"/>
  <outline>
    <contour>
      <point x="0" y="0" type="line"/>
      <point x="0" y="32" type="line"/>
      <point x="94" y="32" type="line" smooth="yes"/>
      <point x="126" y="32"/>
      <point x="135" y="50"/>
      <point x="136" y="70" type="curve" smooth="yes"/>
      <point x="136" y="201" type="line" smooth="yes"/>
      <point x="136" y="236"/>
      <point x="148" y="265"/>
      <point x="169" y="285" type="curve" smooth="yes"/>
      <point x="217" y="332"/>
      <point x="305" y="330"/>
      <point x="358" y="275" type="curve" smooth="yes"/>
      <point x="411" y="219"/>
      <point x="435" y="169"/>
      <point x="435" y="125" type="curve" smooth="yes"/>
      <point x="435" y="41"/>
      <point x="349" y="0"/>
      <point x="264" y="0" type="curve" smooth="yes"/>
      <point x="166" y="0" type="line"/>
      <point x="166" y="32" type="line"/>
      <point x="264" y="32" type="line" smooth="yes"/>
      <point x="344" y="32"/>
      <point x="403" y="69"/>
      <point x="403" y="125" type="curve" smooth="yes"/>
      <point x="403" y="157"/>
      <point x="384" y="200"/>
      <point x="334" y="253" type="curve" smooth="yes"/>
      <point x="293" y="296"/>
      <point x="226" y="295"/>
      <point x="192" y="262" type="curve" smooth="yes"/>
      <point x="178" y="248"/>
      <point x="168" y="228"/>
      <point x="168" y="201" type="curve" smooth="yes"/>
      <point x="168" y="70" type="line"/>
      <point x="167" y="38"/>
      <point x="146" y="0"/>
      <point x="94" y="0" type="curve" smooth="yes"/>
    </contour>
  </outline>
</glyph>
<glyph name="meem-ar.medi" format="2">
  <advance width="435"/>
  <anchor x="267" y="448" name="dotAbove"/>
  <anchor x="189" y="-110" name="dotBelow"/>
  <anchor x="267" y="486" name="markAbove"/>
  <anchor x="189" y="-130" name="markBelow"/>
  <outline>
    <contour>
      <point x="445" y="32" type="line"/>
      <point x="445" y="0" type="line"/>
      <point x="378" y="0" type="line"/>
      <point x="378" y="32" type="line"/>
    </contour>
    <component base="meem-ar.init"/>
  </outline>
</glyph>
<glyph name="miniKeheh-ar" format="2">
  <anchor x="0" y="0" name="_kafAbove"/>
  <anchor x="0" y="260" name="dotAbove"/>
  <anchor x="0" y="287" name="markAbove"/>
  <outline>
    <contour>
      <point x="96" y="143" type="line"/>
      <point x="96" y="111" type="line"/>
      <point x="3" y="111" type="line"/>
      <point x="37" y="40" type="line" smooth="yes"/>
      <point x="40" y="34"/>
      <point x="46" y="21"/>
      <point x="38" y="9" type="curve" smooth="yes"/>
      <point x="33" y="1"/>
      <point x="21" y="0"/>
      <point x="15" y="0" type="curve" smooth="yes"/>
      <point x="-96" y="0" type="line"/>
      <point x="-96" y="32" type="line"/>
      <point x="5" y="32" type="line"/>
      <point x="-29" y="102" type="line"/>
      <point x="-29" y="103"/>
      <point x="-39" y="122"/>
      <point x="-28" y="134" type="curve" smooth="yes"/>
      <point x="-23" y="140"/>
      <point x="-13" y="143"/>
      <point x="-3" y="143" type="curve" smooth="yes"/>
    </contour>
  </outline>
</glyph>
<glyph name="noonghunna-ar.fina" format="2">
  <advance width="574"/>
  <anchor x="238" y="302" name="dotAbove"/>
  <anchor x="238" y="-297" name="dotBelow"/>
  <anchor x="238" y="339" name="markAbove"/>
  <anchor x="238" y="-317" name="markBelow"/>
  <anchor x="238" y="-187" name="ringBelow"/>
  <outline>
    <contour>
      <point x="584" y="32" type="line"/>
      <point x="584" y="0" type="line"/>
      <point x="432" y="0" type="line"/>
      <point x="432" y="32" type="line"/>
    </contour>
    <component base="noonghunna-ar"/>
  </outline>
</glyph>
<glyph name="parenleft.ar" format="2">
  <advance width="269"/>
  <outline>
    <contour>
      <point x="220.451171875" y="741.2783203125" type="curve"/>
      <point x="247.833984375" y="724.7216796875" type="line"/>
      <point x="42.5791015625" y="385.2607421875"/>
      <point x="35.583984375" y="45.630859375"/>
      <point x="249.9150390625" y="-316.8564453125" type="curve"/>
      <point x="222.3701171875" y="-333.1435546875" type="line"/>
      <point x="2.701171875" y="38.369140625"/>
      <point x="9.7060546875" y="392.7392578125"/>
    </contour>
  </outline>
</glyph>
<glyph name="reh-ar.fina" format="2">
  <advance width="300"/>
  <outline>
    <contour>
      <point x="310" y="32" type="line"/>
      <point x="310" y="0" type="line"/>
      <point x="179" y="0" type="line"/>
      <point x="179" y="32" type="line"/>
    </contour>
    <component base="reh-ar" yOffset="-1"/>
  </outline>
</glyph>
<glyph name="ring-ar" format="2">
  <anchor x="0" y="57" name="_ringBelow"/>
  <anchor x="0" y="-142" name="markBelowDot"/>
  <outline>
    <contour>
      <point x="-25" y="0" type="curve" smooth="yes"/>
      <point x="-25" y="14"/>
      <point x="-14" y="25"/>
      <point x="0" y="25" type="curve" smooth="yes"/>
      <point x="14" y="25"/>
      <point x="25" y="14"/>
      <point x="25" y="0" type="curve" smooth="yes"/>
      <point x="25" y="-14"/>
      <point x="14" y="-25"/>
      <point x="0" y="-25" type="curve" smooth="yes"/>
      <point x="-14" y="-25"/>
      <point x="-25" y="-14"/>
    </contour>
    <contour>
      <point x="-57" y="0" type="curve" smooth="yes"/>
      <point x="-57" y="-32"/>
      <point x="-32" y="-57"/>
      <point x="0" y="-57" type="curve" smooth="yes"/>
      <point x="32" y="-57"/>
      <point x="57" y="-32"/>
      <point x="57" y="0" type="curve" smooth="yes"/>
      <point x="57" y="32"/>
      <point x="32" y="57"/>
      <point x="0" y="57" type="curve" smooth="yes"/>
      <point x="-32" y="57"/>
      <point x="-57" y="32"/>
    </contour>
  </outline>
</glyph>
<glyph name="sad-ar.init" format="2">
  <advance width="629.02353"/>
  <anchor x="286" y="427" name="dotAbove"/>
  <anchor x="374" y="-149" name="dotBelow"/>
  <anchor x="286" y="464" name="markAbove"/>
  <anchor x="374" y="-169" name="markBelow"/>
  <outline>
    <contour>
      <point x="0" y="0" type="line"/>
      <point x="0" y="32" type="line"/>
      <point x="157" y="32" type="line"/>
      <point x="157" y="0" type="line"/>
    </contour>
    <contour>
      <point x="123" y="241" type="line"/>
      <point x="155" y="241" type="line"/>
      <point x="155" y="22" type="line"/>
      <point x="123" y="22" type="line"/>
    </contour>
    <component base="_sad-ar.head" xOffset="369"/>
  </outline>
</glyph>
<glyph name="sad-ar.isol" format="2">
  <advance width="915"/>
  <anchor x="572" y="427" name="dotAbove"/>
  <anchor x="668" y="-111" name="dotBelow"/>
  <anchor x="572" y="465" name="markAbove"/>
  <anchor x="229" y="-331" name="markBelow"/>
  <outline>
    <contour>
      <point x="409" y="241" type="line"/>
      <point x="441" y="241" type="line"/>
      <point x="441" y="-133" type="line" smooth="yes"/>
      <point x="441" y="-171"/>
      <point x="412" y="-201"/>
      <point x="372" y="-201" type="curve" smooth="yes"/>
      <point x="105" y="-201" type="line" smooth="yes"/>
      <point x="67" y="-201"/>
      <point x="40" y="-165"/>
      <point x="40" y="-129" type="curve" smooth="yes"/>
      <point x="40" y="149" type="line"/>
      <point x="72" y="149" type="line"/>
      <point x="72" y="-129" type="line" smooth="yes"/>
      <point x="72" y="-151"/>
      <point x="89" y="-169"/>
      <point x="105" y="-169" type="curve" smooth="yes"/>
      <point x="372" y="-169" type="line" smooth="yes"/>
      <point x="394" y="-169"/>
      <point x="409" y="-153"/>
      <point x="409" y="-133" type="curve" smooth="yes"/>
    </contour>
    <component base="_sad-ar.head" xOffset="655"/>
  </outline>
</glyph>
<glyph name="seen-ar.init" format="2">
  <advance width="635"/>
  <anchor x="405" y="512" name="dotAbove"/>
  <anchor x="405" y="-150" name="dotBelow"/>
  <anchor x="405" y="550" name="markAbove"/>
  <anchor x="405" y="-170" name="markBelow"/>
  <outline>
    <contour>
      <point x="216" y="340" type="line"/>
      <point x="248" y="340" type="line"/>
      <point x="248" y="68" type="line" smooth="yes"/>
      <point x="248" y="30"/>
      <point x="219" y="0"/>
      <point x="179" y="0" type="curve" smooth="yes"/>
      <point x="0" y="0" type="line"/>
      <point x="0" y="32" type="line"/>
      <point x="179" y="32" type="line" smooth="yes"/>
      <point x="201" y="32"/>
      <point x="216" y="48"/>
      <point x="216" y="68" type="curve" smooth="yes"/>
    </contour>
    <contour>
      <point x="389" y="340" type="line"/>
      <point x="421" y="340" type="line"/>
      <point x="421" y="67" type="line" smooth="yes"/>
      <point x="421" y="29"/>
      <point x="391" y="0"/>
      <point x="352" y="0" type="curve" smooth="yes"/>
      <point x="240" y="0" type="line"/>
      <point x="240" y="32" type="line"/>
      <point x="352" y="32" type="line" smooth="yes"/>
      <point x="375" y="32"/>
      <point x="389" y="47"/>
      <point x="389" y="67" type="curve" smooth="yes"/>
    </contour>
    <contour>
      <point x="563" y="340" type="line"/>
      <point x="595" y="340" type="line"/>
      <point x="595" y="68" type="line" smooth="yes"/>
      <point x="595" y="30"/>
      <point x="566" y="0"/>
      <point x="526" y="0" type="curve" smooth="yes"/>
      <point x="410" y="0" type="line"/>
      <point x="410" y="32" type="line"/>
      <point x="526" y="32" type="line" smooth="yes"/>
      <point x="548" y="32"/>
      <point x="563" y="48"/>
      <point x="563" y="68" type="curve" smooth="yes"/>
    </contour>
  </outline>
</glyph>
<glyph name="seen-ar.isol" format="2">
  <advance width="828"/>
  <anchor x="598" y="512" name="dotAbove"/>
  <anchor x="609" y="-111" name="dotBelow"/>
  <anchor x="598" y="550" name="markAbove"/>
  <anchor x="229" y="-331" name="markBelow"/>
  <outline>
    <contour>
      <point x="409" y="342" type="line"/>
      <point x="441" y="342" type="line"/>
      <point x="441" y="-133" type="line" smooth="yes"/>
      <point x="441" y="-171"/>
      <point x="412" y="-201"/>
      <point x="372" y="-201" type="curve" smooth="yes"/>
      <point x="105" y="-201" type="line" smooth="yes"/>
      <point x="67" y="-201"/>
      <point x="40" y="-165"/>
      <point x="40" y="-129" type="curve" smooth="yes"/>
      <point x="40" y="149" type="line"/>
      <point x="72" y="149" type="line"/>
      <point x="72" y="-129" type="line" smooth="yes"/>
      <point x="72" y="-151"/>
      <point x="89" y="-169"/>
      <point x="105" y="-169" type="curve" smooth="yes"/>
      <point x="372" y="-169" type="line" smooth="yes"/>
      <point x="394" y="-169"/>
      <point x="409" y="-153"/>
      <point x="409" y="-133" type="curve" smooth="yes"/>
    </contour>
    <contour>
      <point x="582" y="340" type="line"/>
      <point x="614" y="340" type="line"/>
      <point x="614" y="68" type="line" smooth="yes"/>
      <point x="614" y="30"/>
      <point x="585" y="0"/>
      <point x="545" y="0" type="curve" smooth="yes"/>
      <point x="433" y="0" type="line"/>
      <point x="433" y="32" type="line"/>
      <point x="545" y="32" type="line" smooth="yes"/>
      <point x="567" y="32"/>
      <point x="582" y="48"/>
      <point x="582" y="68" type="curve" smooth="yes"/>
    </contour>
    <contour>
      <point x="756" y="340" type="line"/>
      <point x="788" y="340" type="line"/>
      <point x="788" y="68" type="line" smooth="yes"/>
      <point x="788" y="30"/>
      <point x="757" y="0"/>
      <point x="718" y="0" type="curve" smooth="yes"/>
      <point x="603" y="0" type="line"/>
      <point x="603" y="32" type="line"/>
      <point x="718" y="32" type="line" smooth="yes"/>
      <point x="741" y="32"/>
      <point x="756" y="48"/>
      <point x="756" y="68" type="curve" smooth="yes"/>
    </contour>
  </outline>
</glyph>
<glyph name="seven-persian.urdu" format="2">
  <advance width="392.35436"/>
  <outline>
    <contour>
      <point x="362.354" y="32" type="line"/>
      <point x="72.591" y="32" type="line" smooth="yes"/>
      <point x="63.724" y="32"/>
      <point x="60.916" y="38.935"/>
      <point x="62.839" y="46.434" type="curve" smooth="yes"/>
      <point x="208.354" y="614" type="line"/>
      <point x="177.354" y="622" type="line"/>
      <point x="31.354" y="48" type="line" smooth="yes"/>
      <point x="24.9" y="22.625"/>
      <point x="41.997" y="0"/>
      <point x="72.354" y="0" type="curve" smooth="yes"/>
      <point x="362.354" y="0" type="line"/>
    </contour>
  </outline>
</glyph>
<glyph name="tah-ar.isol" format="2">
  <advance width="615.6675"/>
  <anchor x="399" y="485" name="dotAbove"/>
  <anchor x="362" y="-110" name="dotBelow"/>
  <anchor x="399" y="523" name="markAbove"/>
  <anchor x="362" y="-130" name="markBelow"/>
  <outline>
    <contour>
      <point x="148" y="624" type="line"/>
      <point x="180" y="624" type="line"/>
      <point x="180" y="128.476" type="line" smooth="yes"/>
      <point x="180" y="91.21"/>
      <point x="180" y="59.267"/>
      <point x="173" y="22" type="curve"/>
      <point x="144" y="22" type="line"/>
      <point x="148" y="53.559"/>
      <point x="148" y="80.61"/>
      <point x="148" y="112.17" type="curve" smooth="yes"/>
    </contour>
    <contour>
      <point x="39.637" y="-0.094" type="line"/>
      <point x="39.637" y="31.906" type="line"/>
      <point x="506.637" y="31.906" type="line" smooth="yes"/>
      <point x="529.637" y="31.906"/>
      <point x="544.196" y="47.888"/>
      <point x="543.637" y="66.906" type="curve" smooth="yes"/>
      <point x="541.637" y="134.906" type="line" smooth="yes"/>
      <point x="539.313" y="213.897"/>
      <point x="518.232" y="251.399"/>
      <point x="475.637" y="267.906" type="curve" smooth="yes"/>
      <point x="372.942" y="307.704"/>
      <point x="264" y="157"/>
      <point x="162" y="15" type="curve"/>
      <point x="141" y="28" type="line"/>
      <point x="240" y="167"/>
      <point x="352.943" y="349.689"/>
      <point x="486.637" y="297.906" type="curve" smooth="yes"/>
      <point x="544.3" y="275.572"/>
      <point x="571.061" y="219.891"/>
      <point x="573.637" y="134.906" type="curve" smooth="yes"/>
      <point x="575.637" y="68.906" type="line" smooth="yes"/>
      <point x="576.788" y="30.911"/>
      <point x="545.637" y="-0.094"/>
      <point x="506.637" y="-0.094" type="curve" smooth="yes"/>
    </contour>
  </outline>
</glyph>
<glyph name="tail-ar" format="2">
  <anchor x="0" y="0" name="_tailAbove"/>
  <outline>
    <contour>
      <point x="-2" y="34" type="line"/>
      <point x="19" y="9" type="line"/>
      <point x="-48" y="-56" type="line"/>
      <point x="-66" y="-39" type="line"/>
    </contour>
  </outline>
</glyph>
<glyph name="uni06F4.urd" format="2">
  <advance width="475.0"/>
  <outline>
    <contour>
      <point x="62.0" y="-1.0" type="line"/>
      <point x="62.0" y="486.0" type="line" smooth="yes"/>
      <point x="62.0" y="546.0"/>
      <point x="107.0" y="592.0"/>
      <point x="169.0" y="592.0" type="curve"/>
      <point x="246.0" y="592.0" type="line"/>
      <point x="246.0" y="409.0" type="line"/>
      <point x="278.0" y="409.0" type="line"/>
      <point x="278.0" y="486.0" type="line" smooth="yes"/>
      <point x="278.0" y="546.0"/>
      <point x="323.0" y="592.0"/>
      <point x="385.0" y="592.0" type="curve" smooth="yes"/>
      <point x="445.0" y="592.0" type="line"/>
      <point x="445.0" y="624.0" type="line"/>
      <point x="385.0" y="624.0" type="line" smooth="yes"/>
      <point x="340.0" y="624.0"/>
      <point x="302.0" y="606.0"/>
      <point x="277.0" y="575.0" type="curve"/>
      <point x="277.0" y="624.0" type="line"/>
      <point x="169.0" y="624.0" type="line"/>
      <point x="89.0" y="624.0"/>
      <point x="30.0" y="564.0"/>
      <point x="30.0" y="486.0" type="curve" smooth="yes"/>
      <point x="30.0" y="-1.0" type="line"/>
    </contour>
  </outline>
</glyph>
<glyph name="uni06F7.urd" format="2">
  <advance width="392.35435917182514"/>
  <outline>
    <contour>
      <point x="362.35435917182514" y="32" type="line"/>
      <point x="72.5911271121324" y="32.0" type="line" smooth="yes"/>
      <point x="63.72389056765629" y="32.0"/>
      <point x="60.9164405161633" y="38.93466073298384"/>
      <point x="62.83916131466557" y="46.434021130825435" type="curve" smooth="yes"/>
      <point x="208.35435917182517" y="614" type="line"/>
      <point x="177.35435917182517" y="622" type="line"/>
      <point x="31.35435917182516" y="48" type="line" smooth="yes"/>
      <point x="24.900094908233818" y="22.625015840393417"/>
      <point x="41.996799421139336" y="0.0"/>
      <point x="72.35435917182517" y="0.0" type="curve" smooth="yes"/>
      <point x="362.35435917182514" y="0" type="line"/>
    </contour>
  </outline>
</glyph>
<glyph name="wasla-ar" format="2">
  <anchor x="0" y="0" name="_hamzaAbove"/>
  <anchor x="0" y="278" name="markAbove"/>
  <outline>
    <contour>
      <point x="-83" y="0" type="line"/>
      <point x="-131" y="0" type="line"/>
      <point x="-131" y="16" type="line"/>
      <point x="-83" y="16" type="line"/>
    </contour>
    <contour>
      <point x="-82" y="21" type="line"/>
      <point x="-32" y="91"/>
      <point x="20" y="173"/>
      <point x="86" y="149" type="curve" smooth="yes"/>
      <point x="115" y="137"/>
      <point x="129" y="110"/>
      <point x="130" y="68" type="curve" smooth="yes"/>
      <point x="131" y="34" type="line" smooth="yes"/>
      <point x="131" y="15"/>
      <point x="116" y="0"/>
      <point x="96" y="0" type="curve" smooth="yes"/>
      <point x="-90" y="0" type="line"/>
      <point x="-90" y="16" type="line"/>
      <point x="96" y="16" type="line" smooth="yes"/>
      <point x="108" y="16"/>
      <point x="115" y="24"/>
      <point x="115" y="34" type="curve" smooth="yes"/>
      <point x="114" y="68" type="line" smooth="yes"/>
      <point x="113" y="108"/>
      <point x="103" y="125"/>
      <point x="81" y="134" type="curve" smooth="yes"/>
      <point x="30" y="152"/>
      <point x="-18" y="83"/>
      <point x="-70" y="12" type="curve"/>
    </contour>
  </outline>
</glyph>
<glyph name="wavyhamzaabove-ar" format="2">
  <anchor x="0" y="0" name="_hamzaAbove"/>
  <anchor x="0" y="237" name="markAbove"/>
  <outline>
    <contour>
      <point x="-31" y="0" type="line"/>
      <point x="-47" y="0" type="line" smooth="yes"/>
      <point x="-69.783" y="0"/>
      <point x="-87.125" y="6.843"/>
      <point x="-103.313" y="31.125" type="curve" smooth="yes"/>
      <point x="-112.693" y="45.195"/>
      <point x="-118.565" y="49"/>
      <point x="-130" y="49" type="curve" smooth="yes"/>
      <point x="-136.299" y="49"/>
      <point x="-153" y="40.036"/>
      <point x="-153" y="0" type="curve"/>
      <point x="-185" y="0" type="line"/>
      <point x="-185" y="45.964"/>
      <point x="-163.801" y="81"/>
      <point x="-130" y="81" type="curve" smooth="yes"/>
      <point x="-105.38" y="81"/>
      <point x="-88.733" y="66.944"/>
      <point x="-76.687" y="48.875" type="curve" smooth="yes"/>
      <point x="-68.875" y="37.157"/>
      <point x="-60.217" y="32"/>
      <point x="-47" y="32" type="curve" smooth="yes"/>
      <point x="-31" y="32" type="line"/>
    </contour>
    <contour>
      <point x="96" y="143" type="line"/>
      <point x="96" y="111" type="line"/>
      <point x="3" y="111" type="line"/>
      <point x="37" y="40" type="line" smooth="yes"/>
      <point x="40" y="34"/>
      <point x="46" y="21"/>
      <point x="38" y="9" type="curve" smooth="yes"/>
      <point x="33" y="1"/>
      <point x="21" y="0"/>
      <point x="15" y="0" type="curve" smooth="yes"/>
      <point x="-36" y="0" type="line"/>
      <point x="-36" y="32" type="line"/>
      <point x="5" y="32" type="line"/>
      <point x="-29" y="102" type="line"/>
      <point x="-29" y="103"/>
      <point x="-39" y="122"/>
      <point x="-28" y="134" type="curve" smooth="yes"/>
      <point x="-23" y="140"/>
      <point x="-13" y="143"/>
      <point x="-3" y="143" type="curve" smooth="yes"/>
    </contour>
  </outline>
</glyph>
<glyph name="waw-ar.fina" format="2">
  <advance width="460"/>
  <anchor x="325" y="-76" name="dash"/>
  <anchor x="233" y="434" name="dotAbove"/>
  <anchor x="169" y="-309" name="dotBelow"/>
  <anchor x="233" y="434" name="hamzaAbove"/>
  <anchor x="233" y="434" name="kafAbove"/>
  <anchor x="193" y="472" name="markAbove"/>
  <anchor x="169" y="-329" name="markBelow"/>
  <anchor x="169" y="-199" name="ringBelow"/>
  <outline>
    <contour>
      <point x="470" y="32" type="line"/>
      <point x="470" y="0" type="line"/>
      <point x="313" y="0" type="line"/>
      <point x="313" y="32" type="line"/>
    </contour>
    <component base="waw-ar"/>
  </outline>
</glyph>
<glyph name="yehbarree-ar.fina" format="2">
  <advance width="661"/>
  <anchor x="380" y="319" name="dotAbove"/>
  <anchor x="330" y="-376" name="dotBelow"/>
  <anchor x="380" y="319" name="hamzaAbove"/>
  <anchor x="380" y="319" name="kafAbove"/>
  <anchor x="380" y="357" name="markAbove"/>
  <anchor x="330" y="-396" name="markBelow"/>
  <outline>
    <contour>
      <point x="662" y="-244" type="line"/>
      <point x="662" y="-276" type="line"/>
      <point x="224" y="-276" type="line" smooth="yes"/>
      <point x="119" y="-276"/>
      <point x="59" y="-231"/>
      <point x="44" y="-173" type="curve" smooth="yes"/>
      <point x="27" y="-108"/>
      <point x="68" y="-36"/>
      <point x="143" y="-16" type="curve" smooth="yes"/>
      <point x="248" y="12"/>
      <point x="230" y="44"/>
      <point x="255" y="86" type="curve" smooth="yes"/>
      <point x="279" y="127"/>
      <point x="320" y="162"/>
      <point x="379" y="160" type="curve" smooth="yes"/>
      <point x="422" y="159"/>
      <point x="463" y="134"/>
      <point x="486" y="91" type="curve" smooth="yes"/>
      <point x="509" y="46"/>
      <point x="538" y="32"/>
      <point x="588" y="32" type="curve" smooth="yes"/>
      <point x="671" y="32" type="line"/>
      <point x="671" y="0" type="line"/>
      <point x="588" y="0" type="line" smooth="yes"/>
      <point x="530" y="0"/>
      <point x="487" y="22"/>
      <point x="458" y="77" type="curve" smooth="yes"/>
      <point x="441" y="109"/>
      <point x="411" y="127"/>
      <point x="379" y="128" type="curve" smooth="yes"/>
      <point x="333" y="130"/>
      <point x="303" y="103"/>
      <point x="283" y="70" type="curve" smooth="yes"/>
      <point x="266" y="40"/>
      <point x="266" y="-16"/>
      <point x="151" y="-46" type="curve" smooth="yes"/>
      <point x="92" y="-62"/>
      <point x="63" y="-118"/>
      <point x="75" y="-165" type="curve" smooth="yes"/>
      <point x="86" y="-205"/>
      <point x="128" y="-244"/>
      <point x="224" y="-244" type="curve" smooth="yes"/>
    </contour>
  </outline>
</glyph>
<glyph name="yehbarree-ar.isol" format="2">
  <advance width="889"/>
  <anchor x="384" y="338" name="dotAbove"/>
  <anchor x="444" y="-297" name="dotBelow"/>
  <anchor x="384" y="338" name="hamzaAbove"/>
  <anchor x="384" y="338" name="kafAbove"/>
  <anchor x="384" y="375" name="markAbove"/>
  <anchor x="444" y="-317" name="markBelow"/>
  <outline>
    <contour>
      <point x="515" y="198" type="curve"/>
      <point x="498" y="170" type="line"/>
      <point x="445" y="203"/>
      <point x="347" y="241"/>
      <point x="282" y="148" type="curve" smooth="yes"/>
      <point x="264" y="122"/>
      <point x="266" y="62"/>
      <point x="151" y="32" type="curve" smooth="yes"/>
      <point x="92" y="16"/>
      <point x="63" y="-40"/>
      <point x="75" y="-86" type="curve" smooth="yes"/>
      <point x="85" y="-126"/>
      <point x="128" y="-165"/>
      <point x="224" y="-165" type="curve" smooth="yes"/>
      <point x="850" y="-165" type="line"/>
      <point x="850" y="-197" type="line"/>
      <point x="224" y="-197" type="line" smooth="yes"/>
      <point x="119" y="-197"/>
      <point x="59" y="-152"/>
      <point x="44" y="-94" type="curve" smooth="yes"/>
      <point x="27" y="-29"/>
      <point x="68" y="42"/>
      <point x="143" y="62" type="curve" smooth="yes"/>
      <point x="248" y="90"/>
      <point x="226" y="124"/>
      <point x="256" y="166" type="curve" smooth="yes"/>
      <point x="337" y="281"/>
      <point x="460" y="233"/>
    </contour>
  </outline>
</glyph>
